<?xml version="1.0" encoding="UTF-8"?>
<svg id="VM_Image" xmlns="http://www.w3.org/2000/svg" xmlns:xlink="http://www.w3.org/1999/xlink" viewBox="0 0 512.1 512.1">
  
  <g class="cls-1">
    <g class="cls-2">
      <path d="m256.76,209.3c-1.33,0-2.67-.22-3.95-.67l-65.05-22.66c-4.82-1.68-8.05-6.23-8.05-11.33s3.23-9.65,8.05-11.33l65.05-22.66c2.56-.89,5.34-.89,7.89,0l65.05,22.66c4.82,1.68,8.05,6.23,8.05,11.33s-3.23,9.65-8.05,11.33l-65.05,22.66c-1.28.45-2.61.67-3.95.67m-28.57-34.66l28.57,9.95,28.57-9.95-28.57-9.95-28.57,9.95Z"/>
      <path d="m240.76,315.65c-1.82,0-3.64-.41-5.32-1.24l-65.64-32.47c-4.09-2.02-6.68-6.19-6.68-10.76v-71.05c0-3.9,1.9-7.57,5.09-9.81,3.19-2.25,7.28-2.8,10.96-1.48l65.64,23.52c4.77,1.71,7.95,6.23,7.95,11.3v80c0,4.15-2.14,8.01-5.67,10.19-1.93,1.2-4.13,1.81-6.33,1.81m-53.64-51.92l41.64,20.6v-52.23l-41.64-14.92v46.55Z"/>
      <path d="m271.34,316.11c-2.2,0-4.4-.61-6.33-1.81-3.52-2.19-5.67-6.04-5.67-10.19v-80c0-5.07,3.18-9.59,7.95-11.3l65.64-23.52c3.67-1.32,7.76-.76,10.95,1.48,3.19,2.25,5.09,5.91,5.09,9.81v71.05c0,4.56-2.59,8.73-6.68,10.76l-65.65,32.47c-1.68.83-3.5,1.24-5.32,1.24m12-83.55v52.23l41.64-20.6v-46.55l-41.64,14.92Z"/>
      <path d="m414.05,38.05H98.05c-29.22,0-53,23.78-53,53v330c0,29.22,23.78,53,53,53h316c29.22,0,53-23.78,53-53V91.05c0-29.22-23.78-53-53-53m29,383c0,15.99-13.01,29-29,29H98.05c-15.99,0-29-13.01-29-29V91.05c0-15.99,13.01-29,29-29h316c15.99,0,29,13.01,29,29v330Z"/>
      <path d="m382.13,79.4h-252.16c-20.39,0-36.92,16.54-36.92,36.93v240.44c0,20.39,16.53,36.93,36.92,36.93h252.16c20.39,0,36.92-16.54,36.92-36.93V116.33c0-20.39-16.53-36.93-36.92-36.93m-126.08,264.77c-63.66,0-115.27-51.61-115.27-115.27s51.61-115.28,115.27-115.28,115.27,51.62,115.27,115.28-51.61,115.27-115.27,115.27"/>
    </g>
  </g>
</svg>
