<?xml version="1.0" encoding="UTF-8"?>
<svg id="Data_Labeling" xmlns="http://www.w3.org/2000/svg" xmlns:xlink="http://www.w3.org/1999/xlink" viewBox="0 0 512 512">
  
  <g class="cls-1">
    <g class="cls-2">
      <path d="m465.32,478h-205.71c-7.97,0-15.52-2.59-21.25-7.29l-106.94-87.75c-6.08-4.99-9.42-11.72-9.42-18.96s3.35-13.97,9.42-18.96l106.94-87.75c5.73-4.7,13.28-7.29,21.26-7.29h37.39c3.31,0,6,2.69,6,6s-2.69,6-6,6h-37.39c-5.13,0-10.1,1.66-13.64,4.57l-106.94,87.75c-3.25,2.66-5.03,6.1-5.03,9.68s1.79,7.02,5.03,9.68l106.94,87.75c3.54,2.9,8.51,4.57,13.64,4.57h205.71c10.3,0,18.68-6.39,18.68-14.25v-175.5c0-7.86-8.38-14.25-18.68-14.25h-58.32c-3.31,0-6-2.69-6-6s2.69-6,6-6h58.32c16.92,0,30.68,11.77,30.68,26.25v175.5c0,14.48-13.76,26.25-30.68,26.25"/>
      <path d="m458,394h-192c-3.31,0-6-2.69-6-6s2.69-6,6-6h192c3.31,0,6,2.69,6,6s-2.69,6-6,6"/>
      <path d="m458.06,350.33h-.02l-90.06-.33c-3.31-.01-5.99-2.71-5.98-6.02.01-3.31,2.7-5.98,6-5.98h.02l90.05.33c3.32.01,5.99,2.71,5.98,6.02-.01,3.31-2.7,5.98-6,5.98"/>
      <path d="m458,438h-192c-3.31,0-6-2.69-6-6s2.69-6,6-6h192c3.31,0,6,2.69,6,6s-2.69,6-6,6"/>
      <path d="m169,382c-9.93,0-18-8.07-18-18s8.07-18,18-18,18,8.08,18,18-8.08,18-18,18m0-24c-3.31,0-6,2.69-6,6s2.69,6,6,6,6-2.69,6-6-2.69-6-6-6"/>
      <path d="m355.7,323.97c-.79,0-1.58-.16-2.33-.47l-48.84-20.57c-3.05-1.29-4.49-4.8-3.2-7.86l75.19-178.53c1.87-4.43,5.35-7.87,9.8-9.68,4.45-1.81,9.35-1.78,13.78.08l26.73,11.26c4.43,1.87,7.87,5.35,9.68,9.8,1.81,4.45,1.79,9.34-.08,13.78l-75.19,178.53c-.62,1.47-1.79,2.63-3.27,3.23-.73.3-1.49.44-2.26.44m-40.99-29.77l37.79,15.91,72.86-173c.62-1.48.63-3.11.03-4.59-.6-1.48-1.75-2.64-3.23-3.27l-26.73-11.26c-1.48-.62-3.11-.63-4.59-.03-1.48.6-2.64,1.75-3.27,3.23l-72.86,173Zm116.18-154.76h0,0Z"/>
      <path d="m308.79,371.06c-1.47,0-2.93-.29-4.32-.89-4.65-1.99-7.34-6.85-7.01-12.68l2.88-59.12c.04-.7.19-1.39.46-2.04l.53-1.27c1.29-3.05,4.8-4.49,7.86-3.2l48.85,20.57c1.81.76,3.13,2.36,3.54,4.28.41,1.92-.15,3.92-1.49,5.35l-41.66,44.46c-2.77,2.96-6.22,4.53-9.63,4.53m3.18-65l-2.54,52.06c-.01.16-.01.31,0,.44.08-.07.16-.15.24-.24l35.77-38.17-33.46-14.09Z"/>
      <path d="m320.67,309.22c-.78,0-1.58-.15-2.34-.48-3.05-1.3-4.47-4.82-3.18-7.87l80.42-189.24c1.3-3.05,4.82-4.47,7.87-3.18,3.05,1.3,4.47,4.82,3.18,7.87l-80.42,189.24c-.97,2.28-3.19,3.65-5.52,3.65"/>
      <path d="m340.94,317.78c-.78,0-1.58-.15-2.34-.48-3.05-1.3-4.47-4.82-3.18-7.87l80.42-189.24c1.3-3.05,4.82-4.47,7.87-3.18,3.05,1.3,4.47,4.82,3.17,7.87l-80.42,189.24c-.97,2.28-3.19,3.65-5.52,3.65"/>
      <path d="m311.02,354.49c2.54,1.07,3.74,4,2.67,6.55-1.07,2.54-4,3.74-6.55,2.67-2.55-1.07-3.74-4-2.67-6.55s4-3.74,6.55-2.67"/>
      <path d="m309.07,368.1c-1.16,0-2.34-.23-3.48-.71-2.22-.93-3.94-2.67-4.84-4.9-.91-2.23-.89-4.67.04-6.89.93-2.21,2.67-3.93,4.9-4.84,2.23-.91,4.67-.89,6.89.04,2.22.93,3.94,2.67,4.84,4.9.91,2.23.89,4.67-.04,6.89-1.45,3.44-4.79,5.51-8.31,5.51m.02-10c-.15,0-.28.04-.38.08-.17.07-.41.22-.54.54-.21.51.03,1.1.53,1.31.51.22,1.1-.03,1.31-.53.13-.32.08-.59,0-.77-.07-.18-.22-.41-.54-.54h0c-.14-.06-.27-.08-.39-.08"/>
      <path d="m102.98,255.41c.79.57-1.06-.97-.19-.11.25.25.51.48.75.74.21.22.38.49.6.7-1.21-1.14-.35-.44-.01.08.42.65.8,1.34,1.14,2.04.08.15.14.32.22.47.34.68-.47-1.19-.19-.47.15.39.3.78.44,1.18.6,1.72,1.04,3.49,1.35,5.29.07.38.12.77.18,1.15.13.81-.14-1.25-.06-.43.02.2.04.39.07.59.1.98.17,1.97.2,2.96.07,1.93,0,3.85-.18,5.78-.05.55-.11,1.09-.17,1.64-.12,1.2.15-.93-.03.26-.17,1.15-.36,2.3-.58,3.44-.83,4.31-1.98,8.55-3.12,12.79-2.32,8.66-4.49,17.61-4.14,26.65.34,8.79,3.17,16.82,8.64,23.7,4.52,5.68,10.8,9.78,17.05,13.33,2.73,1.55,6.68.74,8.21-2.15,1.5-2.85.76-6.55-2.15-8.21-2.56-1.45-5.08-2.96-7.48-4.67-.31-.22-.61-.44-.92-.67-1.13-.82.84.68.05.05-.64-.52-1.27-1.03-1.89-1.58-1.17-1.03-2.27-2.13-3.3-3.29-.26-.3-.52-.6-.77-.9-.11-.13-.21-.27-.32-.4-.41-.49.45.59.42.54-.46-.73-1.01-1.4-1.47-2.14-.41-.65-.79-1.32-1.15-2-.2-.37-.39-.75-.57-1.13-.11-.22-.2-.45-.31-.67-.34-.7.44,1.14.17.41-.65-1.72-1.22-3.45-1.61-5.25-.11-.52-.21-1.04-.3-1.57-.02-.13-.1-.88-.14-.9.03.02.12,1.17.07.46-.09-1.15-.21-2.29-.24-3.44-.06-2.16.03-4.33.24-6.49.04-.46.1-.93.15-1.39.12-1.16-.05.04-.04.21-.01-.21.07-.48.1-.69.17-1.15.37-2.3.59-3.45.81-4.22,1.94-8.37,3.05-12.51,2.28-8.49,4.51-17.3,4.13-26.16-.39-8.94-2.86-18.64-10.43-24.15-2.55-1.85-6.8-.52-8.21,2.15-1.64,3.11-.57,6.23,2.15,8.21"/>
    </g>
    <g class="cls-4">
      <path d="m162.28,124c-14.38,0-26.04-11.66-26.04-26.04v-25.46H53.25c-11.32,0-20.5,9.18-20.5,20.5v140c0,11.32,9.18,20.5,20.5,20.5h113.5c11.32,0,20.5-9.18,20.5-20.5v-109h-24.96Zm-115.74-17.74c1.08-1.08,2.58-1.76,4.24-1.76h67.96c3.32,0,6,2.68,6,6,0,1.66-.67,3.16-1.75,4.24-1.08,1.09-2.58,1.76-4.25,1.76H50.78c-3.31,0-6-2.68-6-6,0-1.66.68-3.16,1.76-4.24m-.08,24c1.08-1.08,2.58-1.76,4.24-1.76h87.04c3.32,0,6,2.68,6,6,0,1.66-.67,3.16-1.75,4.24-1.09,1.09-2.59,1.76-4.25,1.76H50.71c-3.31,0-6-2.68-6-6,0-1.66.67-3.16,1.76-4.24m127.03,104.49c-1.09,1.09-2.59,1.76-4.25,1.76H50.71c-3.31,0-6-2.68-6-6,0-1.66.67-3.16,1.76-4.24,1.08-1.08,2.58-1.76,4.24-1.76h118.54c3.32,0,6,2.68,6,6,0,1.66-.67,3.16-1.75,4.24m0-24c-1.09,1.09-2.59,1.76-4.25,1.76H50.71c-3.31,0-6-2.68-6-6,0-1.66.67-3.16,1.76-4.24,1.08-1.08,2.58-1.76,4.24-1.76h118.54c3.32,0,6,2.68,6,6,0,1.66-.67,3.16-1.75,4.24m0-24c-1.09,1.09-2.59,1.76-4.25,1.76H50.71c-3.31,0-6-2.68-6-6,0-1.66.67-3.16,1.76-4.24,1.08-1.08,2.58-1.76,4.24-1.76h118.54c3.32,0,6,2.68,6,6,0,1.66-.67,3.16-1.75,4.24m0-24c-1.09,1.09-2.59,1.76-4.25,1.76H50.72c-3.31,0-6-2.68-6-6,0-1.66.68-3.16,1.76-4.24s2.58-1.76,4.24-1.76h118.52c3.32,0,6,2.68,6,6,0,1.66-.67,3.16-1.75,4.24"/>
      <path d="m187.21,112.5c-.14,0-.28,0-.42,0h-20.91c-10.29,0-18.63-8.34-18.63-18.63v-20.91c0-.14,0-.28,0-.42l39.96,39.95Z"/>
    </g>
  </g>
</svg>
