<?xml version="1.0" encoding="UTF-8"?>
<svg id="Database" xmlns="http://www.w3.org/2000/svg" xmlns:xlink="http://www.w3.org/1999/xlink" viewBox="0 0 512.1 512.1">
  
  <g class="cls-2">
    <g class="cls-1">
      <path d="m74.81,111.6c-.01.17-.01.33-.01.5v-.5h.01Z"/>
      <path d="m74.81,111.6h-.01v.5c0-.17,0-.33.01-.5"/>
      <path d="m436.8,111.6v.5c0-.17,0-.33-.01-.5h.01Z"/>
      <path d="m436.8,111.6h-.01c.01.17.01.33.01.5v-.5Z"/>
      <path d="m256.3,236.6c-44.23,0-86.53-3.62-119.1-10.2-36.13-7.3-48.04-15.74-49.9-18.74v-59.07c9.76,4.66,22.55,8.74,38.4,12.28,35.02,7.81,81.4,12.11,130.6,12.11s95.58-4.3,130.6-12.11c15.86-3.54,28.64-7.62,38.4-12.28v7.76c-.97-.19-1.97-.29-3-.29-6.98,0-12.68,4.52-15.68,11.67-2.77-1.71-5.93-2.67-9.32-2.67-8.04,0-14.82,5.41-18.03,13.43-3.93-3.99-9.2-6.43-14.97-6.43-12.13,0-22,10.77-22,24s9.87,24,22,24c8.52,0,15.93-5.31,19.58-13.06,3.53,3.79,8.21,6.06,13.42,6.06,7.28,0,13.53-4.44,17.02-11.23,2.37,1.44,5.06,2.23,7.98,2.23,1.03,0,2.03-.1,3-.29v3.89c-1.86,3-13.77,11.45-49.9,18.74-32.57,6.58-74.87,10.2-119.1,10.2"/>
      <path d="m99.3,166.22c8.04,2.61,16.22,4.66,23.79,6.35,35.85,8,83.16,12.4,133.21,12.4,26.91,0,53.03-1.27,76.99-3.69-1.92,4.51-2.99,9.51-2.99,14.77,0,9.18,3.26,17.57,8.63,23.94-25.16,3-53.62,4.61-82.63,4.61-39.91,0-78.79-3.05-109.48-8.58-29.61-5.34-42.55-11.19-47.52-14.09v-35.71Zm338-45.62c0,22.3-81.04,40.37-181,40.37s-181-18.07-181-40.37v87.64c0,22.29,81.04,40.36,181,40.36s181-18.07,181-40.36v-87.64Zm-15,71.45c-3.31,0-6-5.37-6-12s2.69-12,6-12,6,5.37,6,12-2.69,12-6,12m-25,9c-4.42,0-8-5.37-8-12s3.58-12,8-12,8,5.37,8,12-3.58,12-8,12m-33,7c-5.52,0-10-5.37-10-12s4.48-12,10-12,10,5.37,10,12-4.48,12-10,12"/>
      <path d="m437.3,86.33c0,25.81-81.04,46.72-181,46.72s-181-20.92-181-46.72,81.04-46.72,181-46.72,181,20.92,181,46.72"/>
      <path d="m256.3,348.5c-44.23,0-86.52-3.62-119.09-10.19-36.12-7.29-48.04-15.73-49.91-18.73v-59.01c9.77,4.66,22.55,8.74,38.4,12.27,35.02,7.8,81.4,12.1,130.6,12.1s95.58-4.3,130.6-12.1c15.86-3.53,28.64-7.61,38.4-12.27v11.77c-.97-.19-1.97-.29-3-.29-6.98,0-12.68,4.52-15.68,11.67-2.77-1.71-5.93-2.67-9.32-2.67-8.04,0-14.82,5.41-18.03,13.43-3.93-3.99-9.2-6.43-14.97-6.43-12.13,0-22,10.77-22,24s9.87,24,22,24c8.52,0,15.93-5.31,19.58-13.06,3.53,3.79,8.21,6.06,13.42,6.06,7.28,0,13.53-4.44,17.02-11.23,2.37,1.44,5.06,2.23,7.98,2.23.98,0,1.93-.09,2.85-.26-2.28,3.17-14.47,11.39-49.76,18.52-32.57,6.57-74.86,10.19-119.09,10.19"/>
      <path d="m99.3,278.2c8.04,2.61,16.22,4.66,23.79,6.35,35.85,7.99,83.16,12.39,133.21,12.39,27.72,0,54.59-1.35,79.14-3.91-3.26,5.52-5.14,12.04-5.14,19.02,0,7.47,2.16,14.41,5.85,20.16-24.47,2.79-51.9,4.29-79.85,4.29-39.91,0-78.79-3.05-109.48-8.58-29.6-5.34-42.55-11.18-47.52-14.08v-35.64Zm338-45.6c0,22.28-81.04,40.34-181,40.34s-181-18.06-181-40.34v87.56c0,22.28,81.04,40.34,181,40.34s181-18.06,181-40.34v-87.56Zm-15,75.45c-3.31,0-6-5.37-6-12s2.69-12,6-12,6,5.37,6,12-2.69,12-6,12m-25,9c-4.42,0-8-5.37-8-12s3.58-12,8-12,8,5.37,8,12-3.58,12-8,12m-33,7c-5.52,0-10-5.37-10-12s4.48-12,10-12,10,5.37,10,12-4.48,12-10,12"/>
      <path d="m256.3,460.5c-44.23,0-86.52-3.62-119.09-10.19-36.12-7.29-48.04-15.73-49.91-18.73v-59.01c9.77,4.66,22.55,8.74,38.4,12.27,35.02,7.81,81.4,12.1,130.6,12.1s95.58-4.3,130.6-12.1c15.86-3.53,28.64-7.61,38.4-12.27v8.77c-.97-.19-1.97-.29-3-.29-6.98,0-12.68,4.52-15.68,11.67-2.77-1.71-5.93-2.67-9.32-2.67-8.04,0-14.82,5.41-18.03,13.43-3.93-3.99-9.2-6.43-14.97-6.43-12.13,0-22,10.77-22,24s9.87,24,22,24c8.52,0,15.93-5.31,19.58-13.06,3.53,3.79,8.21,6.06,13.42,6.06,7.28,0,13.53-4.44,17.02-11.23,2.37,1.44,5.06,2.23,7.98,2.23,1.03,0,2.03-.1,3-.29v2.81c-1.87,3-13.79,11.44-49.91,18.73-32.57,6.57-74.86,10.19-119.09,10.19"/>
      <path d="m99.3,390.2c8.04,2.61,16.22,4.66,23.79,6.35,35.85,7.99,83.16,12.39,133.21,12.39,27.09,0,53.37-1.29,77.47-3.74-2.22,4.78-3.47,10.16-3.47,15.85,0,8.71,2.94,16.7,7.81,22.94-24.96,2.94-53.12,4.51-81.81,4.51-39.91,0-78.79-3.05-109.48-8.58-29.6-5.34-42.55-11.18-47.52-14.08v-35.64Zm338-45.6c0,22.28-81.04,40.34-181,40.34s-181-18.06-181-40.34v87.56c0,22.28,81.04,40.34,181,40.34s181-18.06,181-40.34v-87.56Zm-15,72.45c-3.31,0-6-5.37-6-12s2.69-12,6-12,6,5.37,6,12-2.69,12-6,12m-25,9c-4.42,0-8-5.37-8-12s3.58-12,8-12,8,5.37,8,12-3.58,12-8,12m-33,7c-5.52,0-10-5.37-10-12s4.48-12,10-12,10,5.37,10,12-4.48,12-10,12"/>
    </g>
  </g>
</svg>
