<?xml version="1.0" encoding="UTF-8"?>
<svg id="Plane" xmlns="http://www.w3.org/2000/svg" xmlns:xlink="http://www.w3.org/1999/xlink" viewBox="0 0 512 512">
  
  <g class="cls-2">
    <g class="cls-4">
      <path class="cls-1" d="m354.46,229.09l-87.71,80.28v172.45c0,6.49-5.26,11.75-11.75,11.75s-11.75-5.26-11.75-11.75v-207.21l-59.35-86.44c-3.67-5.35-2.31-12.66,3.04-16.33,5.35-3.68,12.66-2.32,16.34,3.03l39.97,58.22v-103.77c0-6.49,5.26-11.75,11.75-11.75s11.75,5.26,11.75,11.75v34.86l10.42-14.85c3.73-5.31,11.06-6.59,16.37-2.87,5.31,3.73,6.59,11.06,2.87,16.37l-29.66,42.26v72.43l71.85-65.77c4.78-4.38,12.22-4.05,16.6.74,4.38,4.79,4.05,12.22-.74,16.6"/>
      <path class="cls-1" d="m161.06,358.68c-13.72,0-26.48-4.98-35.07-14.26-10.42-11.26-12.78-26.63-6.47-42.14l1.6-3.94c2.25-5.54,1.83-11.69-1.16-16.87-2.99-5.18-8.11-8.62-14.03-9.44l-4.21-.58c-18.73-2.59-32.96-16.3-36.24-34.92-3.28-18.62,5.39-36.37,22.11-45.21l3.76-1.99c5.29-2.8,8.92-7.78,9.96-13.67,1.04-5.89-.67-11.82-4.68-16.25l-2.85-3.16c-12.68-14.03-14.77-33.67-5.31-50.05,9.46-16.38,27.51-24.39,46-20.42l4.16.89c5.85,1.26,11.83-.23,16.42-4.07,4.58-3.85,7.08-9.48,6.86-15.46l-.16-4.25c-.7-18.9,10.33-35.29,28.1-41.76,17.77-6.47,36.76-1,48.36,13.92l2.61,3.36c3.67,4.72,9.21,7.43,15.19,7.43s11.52-2.71,15.2-7.43l2.61-3.36c11.61-14.93,30.59-20.39,48.36-13.92,17.77,6.47,28.8,22.86,28.1,41.76l-.16,4.25c-.22,5.98,2.28,11.61,6.86,15.46,4.58,3.85,10.57,5.33,16.42,4.08l4.16-.89c18.49-3.97,36.54,4.05,46,20.42,9.46,16.38,7.37,36.02-5.31,50.05l-2.85,3.16c-4.01,4.44-5.72,10.36-4.68,16.25,1.04,5.89,4.67,10.88,9.96,13.67l3.76,1.99c16.72,8.84,25.4,26.59,22.11,45.21-3.29,18.62-17.51,32.33-36.24,34.92l-4.21.58c-5.93.82-11.04,4.26-14.03,9.44-2.99,5.18-3.42,11.33-1.16,16.87l1.6,3.94c6.27,15.43,3.97,30.71-6.31,41.92-12.21,13.31-33.12,17.89-53.25,11.66-4.75-1.47-22.6-1.71-36.42-1.09-6.48.28-11.97-4.73-12.27-11.21-.29-6.48,4.72-11.98,11.21-12.27,7.7-.35,33.64-1.22,44.42,2.11,13.08,4.05,23.98.36,28.99-5.1,4.07-4.43,4.69-10.21,1.86-17.18l-1.6-3.94c-5-12.31-4.06-25.97,2.58-37.47,6.64-11.51,18-19.15,31.16-20.97l4.21-.58c10.24-1.42,15.14-9.05,16.32-15.73,1.18-6.67-.82-15.53-9.96-20.36l-3.76-1.99c-11.74-6.21-19.8-17.28-22.11-30.36s1.48-26.24,10.39-36.1l2.85-3.16c6.93-7.66,5.78-16.67,2.39-22.54-3.39-5.87-10.61-11.36-20.71-9.2l-4.16.89c-13,2.79-26.28-.51-36.46-9.05-10.18-8.54-15.73-21.05-15.24-34.33l.16-4.25c.38-10.33-6.29-16.49-12.65-18.8-6.37-2.32-15.43-1.89-21.78,6.27l-2.61,3.36c-8.16,10.49-20.46,16.5-33.74,16.5s-25.59-6.02-33.74-16.5l-2.61-3.36c-6.35-8.16-15.41-8.59-21.78-6.27-6.37,2.32-13.04,8.47-12.65,18.8l.16,4.25c.49,13.28-5.06,25.79-15.24,34.33-10.18,8.54-23.47,11.84-36.46,9.05l-4.16-.89c-10.1-2.17-17.32,3.33-20.71,9.2-3.39,5.87-4.54,14.87,2.39,22.54l2.85,3.16c8.91,9.86,12.7,23.01,10.39,36.1-2.31,13.08-10.37,24.15-22.11,30.36l-3.76,1.99c-9.14,4.83-11.13,13.69-9.96,20.36,1.18,6.67,6.08,14.31,16.32,15.73l4.21.58c13.16,1.82,24.52,9.46,31.16,20.97,6.64,11.51,7.58,25.16,2.58,37.47l-1.6,3.94c-2.85,7.02-2.2,12.85,1.95,17.34,5.03,5.44,15.89,9.08,28.8,4.97,10.2-3.25,34.75-2.89,42.04-2.7,6.49.17,11.61,5.56,11.44,12.05-.17,6.38-5.39,11.45-11.74,11.45-.1,0-.21,0-.31,0-13.03-.33-29.85.18-34.29,1.6-6.05,1.92-12.17,2.86-18.11,2.86"/>
    </g>
  </g>
</svg>
