<?xml version="1.0" encoding="UTF-8"?>
<svg id="Shield" xmlns="http://www.w3.org/2000/svg" xmlns:xlink="http://www.w3.org/1999/xlink" viewBox="0 0 512.1 512.1">
  
  <g class="cls-2">
    <g class="cls-1">
      <path d="m460.55,72.17l-.13-3.95-3.95.07c-.67.02-1.32.03-1.99.02-46.25,0-91.51-9.84-134.54-29.25-21.25-9.57-41.96-21.53-61.56-35.53l-.14-.1c-.3-.19-.58-.39-.88-.61l-2.34-1.71-2.35,1.69c-19.66,14.13-40.41,26.19-61.69,35.85-43.33,19.68-88.89,29.66-135.43,29.66h-3.87l-.13,3.87c-.02.9-.02,1.82-.02,2.72,0,4.77.05,9.05.15,13.05.82,40.71,5.61,81.09,14.25,120.03,3.72,16.83,8.2,33.51,13.29,49.59,9.95,31.63,22.7,62.3,37.88,91.18,5.37,10.19,10.91,19.93,16.46,28.96,32.81,53.66,73.24,97.94,120.16,131.59l2.33,1.67,2.33-1.67c46.92-33.65,87.34-77.93,120.15-131.58,1.93-3.12,3.93-6.48,6.31-10.59,19.66-33.94,35.83-70.8,48.06-109.56,5.1-16.15,9.57-32.83,13.27-49.59,8.64-38.94,13.43-79.32,14.25-120,.1-4.02.15-8.29.15-13.08,0-.92,0-1.82-.02-2.73m-106.12,262.5c0,10.58-8.61,19.19-19.19,19.19h-158.38c-10.58,0-19.19-8.61-19.19-19.19v-98.41c0-10.58,8.61-19.19,19.19-19.19h14.1l.37-3.6c3.38-33.29,31.2-58.39,64.72-58.39s61.34,25.1,64.72,58.39l.37,3.6h14.1c10.58,0,19.19,8.61,19.19,19.19v98.41Z"/>
      <path d="m273.63,285.46c0,5.44-2.56,10.56-6.8,13.87v20.06c0,2.9-1.12,5.61-3.15,7.64-2.03,2.04-4.74,3.16-7.63,3.16-5.94,0-10.78-4.85-10.78-10.8v-20.06c-4.24-3.31-6.8-8.43-6.8-13.87,0-9.69,7.89-17.57,17.58-17.57s17.58,7.88,17.58,17.57"/>
      <path d="m296.13,217.07h-80.16l.95-4.78c3.7-18.58,20.15-32.06,39.13-32.06s35.43,13.48,39.13,32.06l.95,4.78Z"/>
    </g>
  </g>
</svg>
