<?xml version="1.0" encoding="UTF-8"?>
<svg id="CPU" xmlns="http://www.w3.org/2000/svg" xmlns:xlink="http://www.w3.org/1999/xlink" viewBox="0 0 512.1 512.1">
  
  <g class="cls-2">
    <g class="cls-1">
      <path d="m343.42,128.06h-174c-22.64,0-41,18.36-41,41v174c0,22.64,18.36,41,41,41h174c22.64,0,41-18.36,41-41v-174c0-22.64-18.36-41-41-41m-132,161v-66c0-6.63,5.37-12,12-12h66c6.63,0,12,5.37,12,12v66c0,6.63-5.37,12-12,12h-66c-6.63,0-12-5.37-12-12"/>
      <path d="m233.22,112.06c-6.63,0-12-5.37-12-12v-49c0-6.63,5.37-12,12-12s12,5.37,12,12v49c0,6.63-5.37,12-12,12"/>
      <path d="m140.42,112.06c-6.63,0-12-5.37-12-12v-49c0-6.63,5.37-12,12-12s12,5.37,12,12v49c0,6.63-5.37,12-12,12"/>
      <path d="m279.62,112.06c-6.63,0-12-5.37-12-12v-49c0-6.63,5.37-12,12-12s12,5.37,12,12v49c0,6.63-5.37,12-12,12"/>
      <path d="m186.82,111.06c-6.63,0-12-5.37-12-12v-49c0-6.63,5.37-12,12-12s12,5.37,12,12v49c0,6.63-5.37,12-12,12"/>
      <path d="m326.02,112.06c-6.63,0-12-5.37-12-12v-49c0-6.63,5.37-12,12-12s12,5.37,12,12v49c0,6.63-5.37,12-12,12"/>
      <path d="m372.42,111.06c-6.63,0-12-5.37-12-12v-49c0-6.63,5.37-12,12-12s12,5.37,12,12v49c0,6.63-5.37,12-12,12"/>
      <path d="m232.85,474.04c-6.63,0-12-5.37-12-12v-49c0-6.63,5.37-12,12-12s12,5.37,12,12v49c0,6.63-5.37,12-12,12"/>
      <path d="m140.05,474.04c-6.63,0-12-5.37-12-12v-49c0-6.63,5.37-12,12-12s12,5.37,12,12v49c0,6.63-5.37,12-12,12"/>
      <path d="m279.25,474.04c-6.63,0-12-5.37-12-12v-49c0-6.63,5.37-12,12-12s12,5.37,12,12v49c0,6.63-5.37,12-12,12"/>
      <path d="m186.45,473.04c-6.63,0-12-5.37-12-12v-49c0-6.63,5.37-12,12-12s12,5.37,12,12v49c0,6.63-5.37,12-12,12"/>
      <path d="m325.65,474.04c-6.63,0-12-5.37-12-12v-49c0-6.63,5.37-12,12-12s12,5.37,12,12v49c0,6.63-5.37,12-12,12"/>
      <path d="m372.05,473.04c-6.63,0-12-5.37-12-12v-49c0-6.63,5.37-12,12-12s12,5.37,12,12v49c0,6.63-5.37,12-12,12"/>
      <path d="m99.05,244.84h-49c-6.63,0-12-5.37-12-12s5.37-12,12-12h49c6.63,0,12,5.37,12,12s-5.37,12-12,12"/>
      <path d="m99.05,152.04h-49c-6.63,0-12-5.37-12-12s5.37-12,12-12h49c6.63,0,12,5.37,12,12s-5.37,12-12,12"/>
      <path d="m99.05,291.24h-49c-6.63,0-12-5.37-12-12s5.37-12,12-12h49c6.63,0,12,5.37,12,12s-5.37,12-12,12"/>
      <path d="m100.05,198.44h-49c-6.63,0-12-5.37-12-12s5.37-12,12-12h49c6.63,0,12,5.37,12,12s-5.37,12-12,12"/>
      <path d="m99.05,337.65h-49c-6.63,0-12-5.37-12-12s5.37-12,12-12h49c6.63,0,12,5.37,12,12s-5.37,12-12,12"/>
      <path d="m100.05,384.04h-49c-6.63,0-12-5.37-12-12s5.37-12,12-12h49c6.63,0,12,5.37,12,12s-5.37,12-12,12"/>
      <path d="m461.05,244.84h-49c-6.63,0-12-5.37-12-12s5.37-12,12-12h49c6.63,0,12,5.37,12,12s-5.37,12-12,12"/>
      <path d="m461.05,152.04h-49c-6.63,0-12-5.37-12-12s5.37-12,12-12h49c6.63,0,12,5.37,12,12s-5.37,12-12,12"/>
      <path d="m461.05,291.24h-49c-6.63,0-12-5.37-12-12s5.37-12,12-12h49c6.63,0,12,5.37,12,12s-5.37,12-12,12"/>
      <path d="m462.05,198.44h-49c-6.63,0-12-5.37-12-12s5.37-12,12-12h49c6.63,0,12,5.37,12,12s-5.37,12-12,12"/>
      <path d="m461.05,337.65h-49c-6.63,0-12-5.37-12-12s5.37-12,12-12h49c6.63,0,12,5.37,12,12s-5.37,12-12,12"/>
      <path d="m462.05,384.04h-49c-6.63,0-12-5.37-12-12s5.37-12,12-12h49c6.63,0,12,5.37,12,12s-5.37,12-12,12"/>
    </g>
  </g>
</svg>
