<?xml version="1.0" encoding="UTF-8"?>
<svg id="Server" xmlns="http://www.w3.org/2000/svg" xmlns:xlink="http://www.w3.org/1999/xlink" viewBox="0 0 512.1 512.1">
  
  <g class="cls-2">
    <g class="cls-1">
      <path d="m458.55,475.05H53.55c-6.63,0-12-5.37-12-12s5.37-12,12-12h405c6.63,0,12,5.37,12,12s-5.37,12-12,12"/>
      <path d="m421.88,167.05H89.88c-14.89,0-27-12.11-27-27v-76c0-14.89,12.11-27,27-27h332c14.89,0,27,12.11,27,27v76c0,14.89-12.11,27-27,27M89.88,61.05c-1.65,0-3,1.35-3,3v76c0,1.65,1.35,3,3,3h332c1.65,0,3-1.35,3-3v-76c0-1.65-1.35-3-3-3H89.88Z"/>
      <path d="m128.38,134.05c-17.92,0-32.5-14.58-32.5-32.5s14.58-32.5,32.5-32.5,32.5,14.58,32.5,32.5-14.58,32.5-32.5,32.5m0-41c-4.69,0-8.5,3.81-8.5,8.5s3.81,8.5,8.5,8.5,8.5-3.81,8.5-8.5-3.81-8.5-8.5-8.5"/>
      <path d="m304.88,93.05h-16c-6.63,0-12-5.37-12-12s5.37-12,12-12h16c6.63,0,12,5.37,12,12s-5.37,12-12,12"/>
      <path d="m205.38,134.05c-17.92,0-32.5-14.58-32.5-32.5s14.58-32.5,32.5-32.5,32.5,14.58,32.5,32.5-14.58,32.5-32.5,32.5m0-41c-4.69,0-8.5,3.81-8.5,8.5s3.81,8.5,8.5,8.5,8.5-3.81,8.5-8.5-3.81-8.5-8.5-8.5"/>
      <path d="m401.88,93.05h-16c-6.63,0-12-5.37-12-12s5.37-12,12-12h16c6.63,0,12,5.37,12,12s-5.37,12-12,12"/>
      <path d="m352.88,93.05h-16c-6.63,0-12-5.37-12-12s5.37-12,12-12h16c6.63,0,12,5.37,12,12s-5.37,12-12,12"/>
      <path d="m303.88,134.05h-16c-6.63,0-12-5.37-12-12s5.37-12,12-12h16c6.63,0,12,5.37,12,12s-5.37,12-12,12"/>
      <path d="m400.88,134.05h-16c-6.63,0-12-5.37-12-12s5.37-12,12-12h16c6.63,0,12,5.37,12,12s-5.37,12-12,12"/>
      <path d="m351.88,134.05h-16c-6.63,0-12-5.37-12-12s5.37-12,12-12h16c6.63,0,12,5.37,12,12s-5.37,12-12,12"/>
      <path d="m421.88,305.05H89.88c-14.89,0-27-12.11-27-27v-76c0-14.89,12.11-27,27-27h332c14.89,0,27,12.11,27,27v76c0,14.89-12.11,27-27,27M89.88,199.05c-1.65,0-3,1.35-3,3v76c0,1.65,1.35,3,3,3h332c1.65,0,3-1.35,3-3v-76c0-1.65-1.35-3-3-3H89.88Z"/>
      <path d="m128.38,272.05c-17.92,0-32.5-14.58-32.5-32.5s14.58-32.5,32.5-32.5,32.5,14.58,32.5,32.5-14.58,32.5-32.5,32.5m0-41c-4.69,0-8.5,3.81-8.5,8.5s3.81,8.5,8.5,8.5,8.5-3.81,8.5-8.5-3.81-8.5-8.5-8.5"/>
      <path d="m304.88,231.05h-16c-6.63,0-12-5.37-12-12s5.37-12,12-12h16c6.63,0,12,5.37,12,12s-5.37,12-12,12"/>
      <path d="m205.38,272.05c-17.92,0-32.5-14.58-32.5-32.5s14.58-32.5,32.5-32.5,32.5,14.58,32.5,32.5-14.58,32.5-32.5,32.5m0-41c-4.69,0-8.5,3.81-8.5,8.5s3.81,8.5,8.5,8.5,8.5-3.81,8.5-8.5-3.81-8.5-8.5-8.5"/>
      <path d="m401.88,231.05h-16c-6.63,0-12-5.37-12-12s5.37-12,12-12h16c6.63,0,12,5.37,12,12s-5.37,12-12,12"/>
      <path d="m352.88,231.05h-16c-6.63,0-12-5.37-12-12s5.37-12,12-12h16c6.63,0,12,5.37,12,12s-5.37,12-12,12"/>
      <path d="m303.88,272.05h-16c-6.63,0-12-5.37-12-12s5.37-12,12-12h16c6.63,0,12,5.37,12,12s-5.37,12-12,12"/>
      <path d="m400.88,272.05h-16c-6.63,0-12-5.37-12-12s5.37-12,12-12h16c6.63,0,12,5.37,12,12s-5.37,12-12,12"/>
      <path d="m351.88,272.05h-16c-6.63,0-12-5.37-12-12s5.37-12,12-12h16c6.63,0,12,5.37,12,12s-5.37,12-12,12"/>
      <path d="m421.88,443.05H89.88c-14.89,0-27-12.11-27-27v-76c0-14.89,12.11-27,27-27h332c14.89,0,27,12.11,27,27v76c0,14.89-12.11,27-27,27m-332-106c-1.65,0-3,1.35-3,3v76c0,1.65,1.35,3,3,3h332c1.65,0,3-1.35,3-3v-76c0-1.65-1.35-3-3-3H89.88Z"/>
      <path d="m128.38,410.05c-17.92,0-32.5-14.58-32.5-32.5s14.58-32.5,32.5-32.5,32.5,14.58,32.5,32.5-14.58,32.5-32.5,32.5m0-41c-4.69,0-8.5,3.81-8.5,8.5s3.81,8.5,8.5,8.5,8.5-3.81,8.5-8.5-3.81-8.5-8.5-8.5"/>
      <path d="m304.88,369.05h-16c-6.63,0-12-5.37-12-12s5.37-12,12-12h16c6.63,0,12,5.37,12,12s-5.37,12-12,12"/>
      <path d="m205.38,410.05c-17.92,0-32.5-14.58-32.5-32.5s14.58-32.5,32.5-32.5,32.5,14.58,32.5,32.5-14.58,32.5-32.5,32.5m0-41c-4.69,0-8.5,3.81-8.5,8.5s3.81,8.5,8.5,8.5,8.5-3.81,8.5-8.5-3.81-8.5-8.5-8.5"/>
      <path d="m401.88,369.05h-16c-6.63,0-12-5.37-12-12s5.37-12,12-12h16c6.63,0,12,5.37,12,12s-5.37,12-12,12"/>
      <path d="m352.88,369.05h-16c-6.63,0-12-5.37-12-12s5.37-12,12-12h16c6.63,0,12,5.37,12,12s-5.37,12-12,12"/>
      <path d="m303.88,410.05h-16c-6.63,0-12-5.37-12-12s5.37-12,12-12h16c6.63,0,12,5.37,12,12s-5.37,12-12,12"/>
      <path d="m400.88,410.05h-16c-6.63,0-12-5.37-12-12s5.37-12,12-12h16c6.63,0,12,5.37,12,12s-5.37,12-12,12"/>
      <path d="m351.88,410.05h-16c-6.63,0-12-5.37-12-12s5.37-12,12-12h16c6.63,0,12,5.37,12,12s-5.37,12-12,12"/>
    </g>
  </g>
</svg>
