<?xml version="1.0" encoding="UTF-8"?>
<svg id="Bucket" xmlns="http://www.w3.org/2000/svg" xmlns:xlink="http://www.w3.org/1999/xlink" viewBox="0 0 512 512">
  
  <g class="cls-1">
    <g class="cls-3">
      <path d="m417.66,132.34c-10.08-11.65-24.69-18.34-40.1-18.34h-54.8c-2.37-12.97-8.16-29.09-16.89-43.31-11.71-19.06-28.71-34.69-49.87-34.69-22.6,0-42.75,20.24-56.72,56.99-2.51,6.61-4.8,13.63-6.84,21.01h-58c-15.41,0-30.02,6.69-40.1,18.34-10.07,11.66-14.57,27.09-12.34,42.34l37.48,256c3.78,25.84,26.33,45.32,52.44,45.32h168.16c26.11,0,48.66-19.48,52.44-45.32l37.48-256c2.23-15.25-2.27-30.68-12.34-42.34m-195.94-30.83c9.88-25.99,22.7-41.51,34.28-41.51,19.38,0,37.12,31.35,42.41,54h-80.94c1.32-4.35,2.74-8.52,4.25-12.49m184.53,69.69l-37.48,256c-2.07,14.14-14.4,24.8-28.69,24.8h-168.16c-14.29,0-26.62-10.66-28.69-24.8l-37.48-256c-1.23-8.34,1.24-16.78,6.75-23.16,5.51-6.38,13.51-10.04,21.94-10.04h52.43c-4.5,23.44-6.87,49.31-6.87,76,0,6.63,5.37,12,12,12s12-5.37,12-12c0-26.58,2.6-52.81,7.39-76h166.17c8.43,0,16.43,3.66,21.94,10.04,5.51,6.38,7.98,14.82,6.75,23.16"/>
    </g>
  </g>
</svg>
