<?xml version="1.0" encoding="UTF-8"?>
<svg id="Magnifier" xmlns="http://www.w3.org/2000/svg" xmlns:xlink="http://www.w3.org/1999/xlink" viewBox="0 0 512.1 512.1">
  
  <g class="cls-2">
    <g class="cls-1">
      <path d="m425.19,396.91l-126-126c-.64-.64-1.3-1.22-2-1.75,14.39-20.02,22.86-44.58,22.86-71.11,0-67.38-54.62-122-122-122s-122,54.62-122,122,54.62,122,122,122c26.53,0,51.09-8.47,71.11-22.86.53.7,1.11,1.36,1.75,2l126,126c3.9,3.91,9.02,5.86,14.14,5.86s10.24-1.95,14.14-5.86c7.81-7.81,7.81-20.47,0-28.28M100.05,198.05c0-54.04,43.96-98,98-98s98,43.96,98,98-43.96,98-98,98-98-43.96-98-98"/>
      <path d="m279.04,188.05c-3.02,0-5.61-2.27-5.96-5.33-.42-3.8-7.51-28.23-28.65-44.86-21.92-17.25-47.15-16.74-51.21-15.92-3.25.65-6.41-1.45-7.06-4.7-.65-3.25,1.45-6.41,4.7-7.06,6.36-1.28,35.35-1.92,60.99,18.26,24.55,19.32,32.5,47.11,33.15,52.96.37,3.29-2,6.26-5.3,6.63-.23.03-.45.04-.67.04"/>
    </g>
  </g>
</svg>
