<?xml version="1.0" encoding="UTF-8"?>
<svg id="Plane" xmlns="http://www.w3.org/2000/svg" xmlns:xlink="http://www.w3.org/1999/xlink" viewBox="0 0 512 512">
  
  <g class="cls-2">
    <g class="cls-4">
      <path class="cls-1" d="m455.9,56.09c9.18,9.18,13.77,21.21,13.77,33.23,0,12.03-4.6,24.06-13.77,33.23l-77.9,77.9,18.72,79.25c4.5-4.2,10.26-6.3,16-6.3,6.02,0,12.03,2.3,16.62,6.89,9.18,9.18,9.18,24.06,0,33.23l-19.92,19.92,16.18,68.51c2.22,9.43-2.3,20.55-11.37,29.61-3.24,3.25-7.07,6.22-11.38,8.78-6.37,3.77-13.69,3.27-16.15-1.12l-88.98-158.49-93.97,93.97,20.17,77.52c3.56,13.7-13.25,23.32-23.26,13.32L46.45,311.32c-10.01-10-.38-26.81,13.32-23.26l77.52,20.17,93.97-93.97L72.76,125.29c-4.38-2.46-4.89-9.78-1.12-16.15,2.55-4.31,5.53-8.13,8.78-11.38,9.07-9.07,20.18-13.59,29.61-11.37l68.51,16.19,19.92-19.92c9.18-9.18,24.06-9.18,33.23,0,4.59,4.59,6.88,10.6,6.89,16.62,0,5.74-2.1,11.51-6.3,16l79.25,18.72,77.9-77.9c18.36-18.36,48.11-18.36,66.47,0"/>
    </g>
  </g>
</svg>
