<?xml version="1.0" encoding="UTF-8"?>
<svg id="User_manager" xmlns="http://www.w3.org/2000/svg" xmlns:xlink="http://www.w3.org/1999/xlink" viewBox="0 0 512.1 512.1">
  
  <g class="cls-5">
    <g class="cls-1">
      <path d="m256.05,213.53c-38.17,0-69.21-31.05-69.21-69.21s31.05-69.21,69.21-69.21,69.21,31.05,69.21,69.21-31.05,69.21-69.21,69.21"/>
      <path d="m256.05,75.15c18.47,0,35.84,7.19,48.91,20.26,13.06,13.06,20.26,30.43,20.26,48.91s-7.2,35.84-20.26,48.91c-13.06,13.06-30.43,20.26-48.91,20.26s-35.84-7.19-48.91-20.26c-13.06-13.06-20.26-30.43-20.26-48.91s7.19-35.84,20.26-48.91c13.06-13.06,30.43-20.26,48.91-20.26m0-.1c-38.25,0-69.26,31.01-69.26,69.26s31.01,69.26,69.26,69.26,69.26-31.01,69.26-69.26-31.01-69.26-69.26-69.26"/>
      <path d="m403.07,396.98c-42.01,25.32-92.59,40.07-147.02,40.07s-105.01-14.75-147.02-40.07c.09-80.44,48.93-147.73,114.33-164.83-1.34,1.73-1.98,4.01-1.54,6.37l26.37,140.77c1.63,8.7,14.09,8.7,15.72,0l26.37-140.77c.44-2.36-.2-4.64-1.54-6.37,65.4,17.1,114.24,84.39,114.33,164.83"/>
      <path class="cls-3" d="m403.07,396.98c-42.01,25.32-92.59,40.07-147.02,40.07s-105.01-14.75-147.02-40.07c.09-80.44,48.93-147.73,114.33-164.83-1.34,1.73-1.98,4.01-1.54,6.37l26.37,140.77c1.63,8.7,14.09,8.7,15.72,0l26.37-140.77c.44-2.36-.2-4.64-1.54-6.37,65.4,17.1,114.24,84.39,114.33,164.83Z"/>
    </g>
    <g class="cls-2">
      <path d="m265.11,228.03h-19.12c-6.16,0-10.01,6.67-6.93,12l9.56,16.56c3.08,5.33,10.78,5.33,13.86,0l9.56-16.56c3.08-5.33-.77-12-6.93-12"/>
      <path d="m274.69,265.74l-11.71-20.28c-3.08-5.33-10.78-5.33-13.86,0l-11.71,20.28c-3.08,5.33.77,12,6.93,12h23.42c6.16,0,10.01-6.67,6.93-12"/>
      <path d="m263.95,346.47l11.71-74.17c.77-4.86-2.99-9.25-7.9-9.25h-23.43c-4.92,0-8.67,4.39-7.9,9.25l11.71,74.17c1.42,9,14.38,9,15.8,0"/>
    </g>
  </g>
</svg>
