<?xml version="1.0" encoding="UTF-8"?>
<svg id="Ebene_1" data-name="Ebene 1" xmlns="http://www.w3.org/2000/svg" viewBox="0 0 564 564">
  
  <path class="cls-1" d="m514.61,241.61l-84.9-156.97c-1.78-3.3-5.03-5.54-8.75-6.05l-81.03-11.06c-4.5-.62-8.96,1.42-11.44,5.24l-19.51,30.03c-5.82,8.96-14.26,13.94-23.27,13.63-9.23-.3-17.65-6.04-23.1-15.76l-15.29-27.25c-2.32-4.15-6.92-6.48-11.64-5.92l-92.45,11.06c-3.79.46-7.12,2.72-8.94,6.08L49.39,241.61c-1.56,2.89-1.85,6.3-.78,9.41,1.06,3.1,3.38,5.62,6.39,6.94,5.21,2.29,13.32,6.13,22.71,10.58,12.94,6.13,29.05,13.75,43.17,19.94h.01c1.53.67,3.12.99,4.69.99,1.13,0,2.25-.17,3.32-.48.81-.24,1.58-.56,2.32-.96.49-.27.97-.58,1.41-.91.45-.34.88-.71,1.29-1.12,1-1,1.84-2.21,2.44-3.59l16.31-37.39v251.66c0,6.49,5.26,11.75,11.75,11.75h235.16c6.49,0,11.75-5.26,11.75-11.75v-246.29l13.17,33.32c.03.07.06.14.09.21.05.12.1.23.16.35.06.15.13.3.21.45.1.21.21.41.34.61,0,.01,0,.02.02.03.12.22.25.42.39.62.04.08.09.15.15.22.1.14.2.28.31.42.07.1.15.2.23.29.14.17.29.34.45.5.02.03.05.06.09.1.16.17.33.33.5.49.04.04.09.09.14.12.17.16.35.31.54.45.03.04.07.07.11.1.16.13.33.25.51.36.39.29.81.54,1.24.76.19.1.38.19.57.28.25.12.51.23.77.32.26.1.52.19.79.27,1.07.31,2.19.48,3.32.48h.02c.35,0,.7-.02,1.06-.05.07-.01.13-.01.19-.02.17-.02.34-.04.51-.07.17-.02.34-.05.51-.09.43-.08.85-.2,1.28-.33.19-.06.37-.13.55-.2.14-.05.28-.1.41-.16.06-.02.11-.05.17-.07,14.13-6.16,24.68-11.32,34.88-16.3,9.98-4.87,20.29-9.91,33.97-15.88,3.01-1.31,5.33-3.83,6.41-6.94,1.07-3.11.79-6.52-.78-9.42Zm-49.91,11.13c-7.09,3.46-14.35,7-22.86,10.9l-31.22-78.99-.11-.28s-.01-.01-.01-.02c-.1-.26-.21-.51-.33-.76-.1-.2-.2-.4-.31-.59-.07-.14-.15-.27-.23-.4-.01-.02-.02-.04-.04-.06-.11-.2-.24-.39-.37-.57-.12-.19-.26-.37-.41-.54-.17-.23-.36-.46-.57-.68-.08-.1-.17-.19-.27-.28-.31-.33-.64-.63-.99-.9-.12-.1-.24-.2-.37-.29-.32-.25-.65-.47-.99-.67-.14-.08-.29-.17-.44-.25-.21-.12-.42-.22-.64-.32-.23-.12-.48-.22-.72-.31-.18-.08-.36-.14-.55-.19-.07-.03-.13-.06-.2-.07-.18-.06-.36-.11-.55-.16h-.01c-.18-.05-.37-.09-.56-.13-.39-.08-.78-.14-1.17-.18-.39-.04-.8-.06-1.2-.06-.74,0-1.46.07-2.17.2-.08,0-.15.03-.23.05-.18.03-.36.08-.53.12-.19.05-.38.1-.56.16-.16.05-.31.1-.46.15-.12.04-.25.09-.37.14-.01,0-.01,0-.02,0-.24.09-.48.2-.71.31-.22.1-.43.21-.64.33-.14.08-.27.15-.4.23-.34.2-.67.43-.99.68-.13.09-.27.2-.39.3-.16.13-.32.27-.47.41-.1.09-.19.17-.28.27-.41.39-.78.8-1.11,1.24-.15.2-.3.41-.44.62-.14.2-.27.41-.39.63-.17.28-.32.57-.46.87-.12.26-.23.52-.34.79-.1.27-.19.54-.28.82-.08.27-.16.55-.22.83-.12.51-.2,1.03-.24,1.56-.02.13-.03.26-.03.39-.02.21-.02.43-.02.64v296.24h-211.66V188.69c0-.41-.02-.81-.06-1.2-.02-.2-.05-.4-.07-.59-.03-.2-.06-.39-.11-.58-.03-.17-.07-.35-.12-.52-.01-.04-.02-.08-.03-.11-.04-.16-.08-.33-.14-.49-.18-.6-.42-1.18-.7-1.74-.14-.29-.3-.58-.47-.86-.08-.14-.17-.28-.26-.41-.04-.07-.09-.14-.13-.2-.19-.27-.38-.53-.59-.77-.12-.15-.24-.29-.37-.43-.12-.14-.25-.28-.39-.41-.11-.11-.23-.22-.35-.34-.03-.03-.06-.06-.09-.07-.12-.12-.25-.22-.38-.33-.15-.13-.3-.25-.46-.36-.12-.09-.23-.17-.35-.25-.42-.3-.86-.56-1.32-.79-.21-.12-.43-.22-.66-.32-.32-.14-.65-.27-.98-.37-.45-.16-.9-.28-1.35-.37-.36-.07-.73-.13-1.1-.17-.04-.01-.08-.01-.12-.01-.37-.04-.76-.06-1.14-.06-.22,0-.44,0-.66.02-.11,0-.22.01-.33.03-.18.01-.37.03-.55.06-.09,0-.18.01-.26.03-.24.04-.48.08-.71.13h-.01c-.27.06-.54.13-.8.21-.27.08-.54.17-.8.26-.26.1-.52.21-.77.33-.25.11-.49.23-.72.35-.01.01-.02.01-.03.02-.22.12-.44.25-.65.38-.91.57-1.75,1.28-2.48,2.1-.1.11-.2.22-.29.34-.15.17-.29.35-.42.54-.16.2-.3.42-.44.64-.18.28-.35.58-.51.88-.12.24-.24.48-.35.73l-.09.21-34,77.95c-10.7-4.86-21.74-10.09-31.79-14.85-4.21-1.99-8.16-3.86-11.74-5.54l76.03-140.59,78.61-9.4,11.44,20.4c9.43,16.81,25.44,27.18,42.84,27.75,17.39.57,33.33-8.3,43.73-24.31l15.46-23.79,67.74,9.25,76.04,140.58c-8.67,3.98-16.04,7.58-23.22,11.09Z"/>
  <path class="cls-1" d="m132.63,287.12c.45-.34.88-.71,1.29-1.12-.4.41-.83.78-1.29,1.12Z"/>
  <path class="cls-1" d="m424.59,283.92c.05.12.1.23.16.35-.04-.06-.06-.12-.09-.18-.02-.06-.05-.11-.07-.17Z"/>
  <path class="cls-1" d="m176.17,188.69c0-.41-.02-.81-.06-1.2.05.4.06.8.06,1.2Z"/>
  <path class="cls-1" d="m399.6,176.94s-.03,0-.05,0c0,0,.02,0,.03,0,0,0,.02,0,.02,0Z"/>
  <path class="cls-1" d="m400.78,177c-.38-.04-.78-.06-1.18-.06.39,0,.79.02,1.18.06Z"/>
  <path class="cls-1" d="m397.41,177.14c.72-.14,1.43-.2,2.14-.2-.73,0-1.44.07-2.14.2Z"/>
  <path class="cls-1" d="m439.96,290.22c-.07.03-.14.06-.21.09-.07.03-.13.05-.2.07.14-.05.28-.1.41-.16Z"/>
</svg>
