<?xml version="1.0" encoding="UTF-8"?>
<svg id="Rocket" xmlns="http://www.w3.org/2000/svg" xmlns:xlink="http://www.w3.org/1999/xlink" viewBox="0 0 512.1 512.1">
  
  <g class="cls-2">
    <g class="cls-1">
      <path d="m434.32,78.68c-6.27-6.27-46.58.9-80.18,9.85,12.09,7.17,24.63,17.02,36.73,29.12,12.54,12.54,22.4,25.08,29.56,37.62,8.96-34.49,20.6-70.32,13.89-76.59"/>
      <path d="m184.83,206.33l-15.23-5.82c-6.27-2.24-12.99-.9-17.92,3.58l-71.22,71.22c-11.65,11.65-.9,31.8,15.23,28.22l59.57-13.44c4.93-22.4,12.99-52.41,29.56-83.76"/>
      <path d="m303.53,323.24c-30.01,15.68-58.68,24.19-81.97,28.67l-13.88,63.6c-3.58,16.12,16.12,27.32,28.22,15.23l71.22-71.22c4.48-4.48,6.27-11.65,3.58-17.92l-7.17-18.37Z"/>
      <path d="m329.96,96.59c-26.43,10.75-56.44,29.12-85.55,58.23-53.3,53.3-68.98,117.8-73.46,154.53l27.77,27.77c36.73-4.48,101.68-19.71,154.98-73.01,29.11-29.12,47.48-58.68,58.23-85.1-5.82-14.78-17.47-32.25-34.04-49.27-16.12-15.68-33.14-27.32-47.93-33.15m22.84,96.75c-10.3,10.3-27.32,10.3-38.07,0-10.3-10.3-10.3-27.32,0-38.07,10.3-10.3,27.32-10.3,38.07,0,10.3,10.75,10.3,27.77,0,38.07"/>
      <path d="m170.5,337.57c-7.17-7.17-6.27-19.26-21.05-4.48-14.78,14.78-36.73,48.38-30.01,55.54,7.17,7.17,40.76-15.23,55.54-30.01,14.78-15.23,2.69-14.33-4.48-21.05"/>
    </g>
  </g>
</svg>
