<?xml version="1.0" encoding="UTF-8"?>
<svg id="Ebene_1" data-name="Ebene 1" xmlns="http://www.w3.org/2000/svg" viewBox="0 0 564 564">
  
  <path class="cls-2" d="m459.59,244.55c-.85-2.29-1.95-4.53-3.3-6.7l-29.85-47.93c-6.81-10.93-18.79-17.58-31.67-17.58h-168.3c-12.89,0-24.85,6.65-31.67,17.58l-29.85,47.93c-1.01,1.62-1.87,3.27-2.6,4.95h-44.18c-15.08,0-28.74,6.11-38.62,15.99-9.88,9.89-15.99,23.54-15.99,38.62,0,30.16,24.45,54.61,54.61,54.61,0-30.16,24.45-54.61,54.61-54.61s54.61,24.45,54.61,54.61h109.22c0-8.27,1.84-16.12,5.12-23.13,8.71-18.6,27.6-31.48,49.49-31.48,7.72,0,15.06,1.6,21.72,4.49,19.36,8.4,32.89,27.68,32.89,50.13,15.08,0,28.74-6.11,38.62-15.99,9.88-9.89,15.99-23.54,15.99-38.62,0-25.41-17.35-46.77-40.85-52.86Zm-181.88-2.88h-88.1c.38-1.28.84-2.53,1.35-3.76l15.54-36.44c3.54-8.32,9.77-13.37,16.46-13.37h59.12l-4.37,53.58Zm65.88,1.13h.55c.02.07.03.15.06.22-.2-.08-.41-.15-.6-.22Zm.23-1.13h0s-6.32.01-6.32.01c-.15-.01-.31-.01-.46-.01h-45.05l4.37-53.58h14.13c.2,0,.41,0,.62.02.2-.02.42-.02.63-.02h71.03l5.57,53.58h-44.5Zm90.61,1.13c-2.13-.74-4.36-1.13-6.66-1.13h-25.13l-5.58-53.58h3.68c6.83,0,13.16,5.05,16.77,13.37l15.79,36.44c.69,1.59,1.25,3.23,1.68,4.89h-.56Z"/>
  <path class="cls-2" d="m344.2,243.02c-.2-.08-.41-.15-.6-.22h.55c.02.07.03.15.06.22Z"/>
  <circle class="cls-2" cx="172.78" cy="352.02" r="39.65"/>
  <circle class="cls-2" cx="391.22" cy="352.02" r="39.65"/>
  <path class="cls-2" d="m343.83,241.67h0s-6.32.01-6.32.01c-.15-.01-.31-.01-.46-.01h6.79Z"/>
  <path class="cls-1" d="m343.83,241.67h0s-6.32.01-6.32.01c-.15-.01-.31-.01-.46-.01h6.79Z"/>
  <path class="cls-1" d="m344.2,243.02c-.2-.08-.41-.15-.6-.22h.55c.02.07.03.15.06.22Z"/>
  <path class="cls-2" d="m344.2,243.02c-.2-.08-.41-.15-.6-.22h.55c.02.07.03.15.06.22Z"/>
</svg>
