<?xml version="1.0" encoding="UTF-8"?>
<svg id="Mail" xmlns="http://www.w3.org/2000/svg" xmlns:xlink="http://www.w3.org/1999/xlink" viewBox="0 0 512.1 512.1">
  
  <g class="cls-2">
    <g class="cls-1">
      <path d="m406.05,128.05H106.05c-22.64,0-41,18.36-41,41v174c0,22.64,18.36,41,41,41h300c22.64,0,41-18.36,41-41v-174c0-22.64-18.36-41-41-41m-300,24h300c.36,0,.73.01,1.08.04l-139.94,140.69c-2.93,2.92-6.77,4.39-10.61,4.39s-7.68-1.47-10.61-4.39L105.05,152.08c.33-.02.66-.03,1-.03m-17,17.97l85.93,85.94-85.93,83.92v-169.86Zm317,190.03H106.05c-1.03,0-2.04-.09-3.02-.28l88.99-86.93,35.59,35.58c8.01,8.01,18.5,12.01,28.99,12.01s20.99-4,28.99-12.01l35.47-35.46,87.7,86.87c-.88.15-1.79.22-2.71.22m17-19.86l-85.03-84.23,85.03-85.84v170.07Z"/>
      <path d="m337.85,256.15c-.24.26-.49.51-.74.76l-2.28,2.28,3.02-3.04Z"/>
      <path d="m337.85,256.15c-.24.26-.49.51-.74.76l-2.28,2.28,3.02-3.04Z"/>
    </g>
  </g>
</svg>
