<?xml version="1.0" encoding="UTF-8"?>
<svg id="Question_mark" xmlns="http://www.w3.org/2000/svg" xmlns:xlink="http://www.w3.org/1999/xlink" viewBox="0 0 512.1 512.1">
  
  <g class="cls-2">
    <g class="cls-1">
      <path d="m256.94,367.77c-.15,0-.3,0-.46,0-17.12-.25-30.8-14.33-30.55-31.45.07-4.72.07-9.47,0-14.1-.11-7.14-.07-11.41-.04-15.54.02-1.93.03-3.85.03-6.1,0-25.8,9.78-37.52,27.53-58.79,2.45-2.93,5.18-6.21,8.22-9.9,8.09-9.83,12.26-14.38,15.94-18.4,2.62-2.86,4.88-5.33,8.6-9.72,14.76-17.44,18.09-23.55,18.76-34.42.38-6-.99-15.56-9.65-27-13.88-18.37-37.03-19.46-39.63-19.52-4.54-.12-27.79.2-40.48,17.41-7.92,10.74-8.49,22.95-8.13,29.27.98,17.09-12.08,31.74-29.18,32.72-17.08.99-31.74-12.08-32.72-29.18-.84-14.66.66-43.19,20.12-69.59,30.15-40.91,77.98-42.96,91.93-42.61,9.22.23,56.8,3.43,87.52,44.08,20.13,26.63,23.12,51.83,22.09,68.28-1.94,31.19-16.24,50.43-33.31,70.62-4.51,5.33-7.4,8.49-10.21,11.55-3.47,3.79-6.75,7.37-13.8,15.93-3.14,3.81-5.96,7.19-8.49,10.22-5.75,6.9-11.7,14.02-13.04,16.59-.04.35-.1,1.1-.1,2.48,0,2.44-.02,4.53-.03,6.62-.03,3.95-.06,7.68.03,14.11.08,5.24.08,10.59,0,15.91-.25,16.97-14.08,30.55-30.99,30.55"/>
      <path d="m287.05,424.05c0,17.12-13.88,31-31,31s-31-13.88-31-31,13.88-31,31-31,31,13.88,31,31"/>
    </g>
  </g>
</svg>
