<?xml version="1.0" encoding="UTF-8"?>
<svg id="Load_balancer" xmlns="http://www.w3.org/2000/svg" xmlns:xlink="http://www.w3.org/1999/xlink" viewBox="0 0 512.1 512.1">
  
  <g class="cls-2">
    <g class="cls-1">
      <path d="m426.05,327.05c22.06,0,40,17.94,40,40s-17.94,40-40,40-40-17.94-40-40,17.94-40,40-40m0-24c-35.35,0-64,28.65-64,64s28.65,64,64,64,64-28.65,64-64-28.65-64-64-64"/>
      <path d="m288.27,75.62l-21.44,24.48c-2.47,2.82-6.04,4.43-9.78,4.43s-7.31-1.61-9.78-4.43l-21.44-24.48c-3.36-3.84-4.17-9.31-2.06-13.94,2.1-4.64,6.75-7.63,11.83-7.63h9.45V19.05c0-6.63,5.37-12,12-12,3.32,0,6.32,1.34,8.49,3.51,2.17,2.17,3.51,5.17,3.51,8.49v35h9.45c5.09,0,9.73,3,11.84,7.63,2.1,4.64,1.29,10.11-2.07,13.94"/>
      <path d="m86.05,327.05c22.06,0,40,17.94,40,40s-17.94,40-40,40-40-17.94-40-40,17.94-40,40-40m0-24c-35.35,0-64,28.65-64,64s28.65,64,64,64,64-28.65,64-64-28.65-64-64-64"/>
      <path d="m257.05,389.05c22.06,0,40,17.94,40,40s-17.94,40-40,40-40-17.94-40-40,17.94-40,40-40m0-24c-35.35,0-64,28.65-64,64s28.65,64,64,64,64-28.65,64-64-28.65-64-64-64"/>
      <path d="m383.07,308.72l-2.25-34.03c-.33-5.08-3.63-9.52-8.39-11.31-4.77-1.79-10.17-.63-13.77,2.97l-7.4,7.41-25-25c11.16-14.63,17.79-32.9,17.79-52.71,0-48.05-38.95-87-87-87s-87,38.95-87,87c0,19.57,6.46,37.63,17.36,52.17l-25.19,25.19-7.72-7.73c-3.6-3.6-9-4.77-13.77-2.98-4.77,1.79-8.07,6.23-8.41,11.31l-2.29,34.74c-.25,3.73,1.12,7.39,3.77,10.04,2.45,2.45,5.76,3.82,9.2,3.82.28,0,.56-.01.84-.03l34.75-2.3c5.08-.34,9.52-3.63,11.31-8.4,1.8-4.76.63-10.17-2.97-13.76l-7.74-7.74,25.13-25.12c11.62,8.87,25.55,14.87,40.73,16.96v28.83h-9.45c-5.08,0-9.73,3-11.83,7.63-2.11,4.63-1.3,10.1,2.06,13.94l21.45,24.49c2.47,2.81,6.03,4.42,9.77,4.42s7.3-1.61,9.77-4.42l21.45-24.49c3.36-3.83,4.17-9.3,2.07-13.94-2.11-4.63-6.75-7.63-11.84-7.63h-9.45v-28.83c14.94-2.05,28.66-7.91,40.18-16.54l25.05,25.05-7.4,7.4c-3.6,3.6-4.77,9-2.98,13.77,1.79,4.76,6.23,8.06,11.31,8.39l34.03,2.25c.29.02.57.03.86.03,3.44,0,6.75-1.36,9.19-3.81,2.65-2.64,4.03-6.31,3.78-10.04m-126.02-49.67c-34.74,0-63-28.26-63-63s28.26-63,63-63,63,28.26,63,63-28.26,63-63,63"/>
      <path d="m303.18,170.48h-92.26c-5.53,0-10,4.48-10,10s4.47,10,10,10h31.45l-16.5,28.57c-5.39,9.33,1.35,21,12.13,21h38.1c10.78,0,17.52-11.67,12.13-21l-16.5-28.57h31.45c5.53,0,10-4.48,10-10s-4.47-10-10-10m-54.79,49.57l8.66-15,8.66,15h-17.32Z"/>
    </g>
  </g>
</svg>
