<?xml version="1.0" encoding="UTF-8"?>
<svg id="Git_Branching" xmlns="http://www.w3.org/2000/svg" xmlns:xlink="http://www.w3.org/1999/xlink" viewBox="0 0 512.1 512.1">
  
  <g class="cls-2">
    <g class="cls-1">
      <path d="m352.05,101.55c-29.27,0-53,23.73-53,53,0,24.94,17.22,45.85,40.42,51.49-4.51,33.01-34.99,64.51-83.42,64.51-37.33,0-65.57,8.7-84,25.88v-143.25c23.49-5.43,41-26.49,41-51.63,0-29.27-23.73-53-53-53s-53,23.73-53,53c0,25.14,17.51,46.2,41,51.63v205.74c-23.48,5.43-41,26.48-41,51.63,0,29.27,23.73,53,53,53s53-23.73,53-53c0-25.12-17.48-46.16-40.93-51.62v-1.5c-.02-18.27,4.89-32.07,15.01-42.21,13.51-13.52,37.34-20.67,68.92-20.67,63.48,0,102.97-43.49,107.55-88.27,23.72-5.26,41.45-26.43,41.45-51.73,0-29.27-23.73-53-53-53m-221,0c0-15.99,13.01-29,29-29s29,13.01,29,29-13.01,29-29,29-29-13.01-29-29m58,309c0,15.99-13.01,29-29,29s-29-13.01-29-29,13.01-29,29-29,29,13.01,29,29m163-227c-15.99,0-29-13.01-29-29s13.01-29,29-29,29,13.01,29,29-13.01,29-29,29"/>
    </g>
  </g>
</svg>
