<?xml version="1.0" encoding="UTF-8"?>
<svg id="Firewall" xmlns="http://www.w3.org/2000/svg" xmlns:xlink="http://www.w3.org/1999/xlink" viewBox="0 0 512.1 512.1">
  
  <g class="cls-1">
    <g class="cls-3">
      <path d="m413.05,177.38h-51.02c-.58-7.16-2.67-16.74-3.98-25.5-1.66-11.09-10.63-39.63-24-53-3-3-10.25-11.45-16-8-5,3-3.18,14.07-4,19l-1,12c-.19.4-.39.81-.59,1.22-.13-.73-.27-1.47-.41-2.22-1.83-9.69-5.34-27.36-17-46,0,0-20.08-32.11-50-40-2.9-.76-9.93-2.62-14,1-2.39,2.12-3,5.27-3,7,0,16,1.69,27.44,0,37-3,17-3.02,13.79-6,22-.77,2.13-1.6,4.41-2.45,6.81-2.24-6.15-6.2-18.39-15.55-26.81-2.61-2.35-11-8-15-6-3.26,1.63-4.06,8.61-5,13-3.25,15.11-2.87,20.04-6,31-4,14-4.42,15.46-9,30-3.45,10.95-5.92,20.23-6.5,27.5h-53.5c-29.22,0-53,23.78-53,53v175c0,29.22,23.78,53,53,53h304c29.22,0,53-23.78,53-53v-175c0-29.22-23.78-53-53-53m-104,127.68l-101,.14v-40l101-.14v40Zm67,23.91v39.5l-101,.14v-39.5l101-.14Zm-125,.17v39.5l-107,.15v-39.5l107-.15Zm22-88.03v-39.73h103v39.59l-103,.14Zm-129-39.73h105v39.77l-105,.14v-39.91Zm-64,29c0-15.99,13.01-29,29-29h11v39.94l-40,.06v-11Zm.02,35l103.98-.14v40l-104,.14.02-40Zm0,64l39.98-.06v39.5l-40,.06.02-39.5Zm104.01,105h-75.03c-15.99,0-29-13.01-29-29l.02-12.5,104.12-.14-.11,41.64Zm124.97,0h-100.97l.11-41.68,100.86-.14v41.82Zm133-29c0,15.99-13.01,29-29,29h-80v-41.85l109-.15v13Zm-.02-37l-41.98.06v-39.5l42-.06-.02,39.5Zm0-63.5l-108.98.15v-40l109-.15-.02,40Zm0-64l-41.98.06v-39.56h13c15.99,0,29,13.01,29,29v10.5"/>
    </g>
  </g>
</svg>
