<?xml version="1.0" encoding="UTF-8"?>
<svg id="Pipeline" xmlns="http://www.w3.org/2000/svg" xmlns:xlink="http://www.w3.org/1999/xlink" viewBox="0 0 512.1 512.1">
  
  <g class="cls-2">
    <g class="cls-1">
      <path d="m407.05,39.05h-46c-6.63,0-12,5.37-12,12v11.75h-38.41c-51.91,0-94.13,42.22-94.13,94.11v186.26c0,16.02-13.04,29.06-29.07,29.06h-24.39v-10.18c0-6.63-5.37-12-12-12h-46c-6.63,0-12,5.37-12,12v100c0,6.63,5.37,12,12,12h46c6.63,0,12-5.37,12-12v-12.75h38.41c51.91,0,94.14-42.22,94.14-94.11v-186.26c0-16.02,13.03-29.06,29.06-29.06h24.39v11.18c0,6.63,5.37,12,12,12h46c6.63,0,12-5.37,12-12V51.05c0-6.63-5.37-12-12-12M139.05,450.05h-22v-76h22v76Zm101.46-293.14c0-18.79,7.42-35.87,19.5-48.47l23.1,27.53c-7.2,9.05-11.51,20.51-11.51,32.96v30.12h-31.09v-42.14Zm0,66.14h31.09v72h-31.09v-72Zm-39.05,202.25h-38.41v-29.07h24.39c8.66,0,16.85-2.09,24.08-5.78l22.51,26.82c-9.74,5.13-20.82,8.03-32.57,8.03m70.14-70.11c0,18.27-7.03,34.93-18.54,47.42l-23.18-27.62c6.68-8.87,10.63-19.89,10.63-31.82v-24.12h31.09v36.14Zm77.45-239.32h-24.39c-8.15,0-15.88,1.85-22.78,5.15l-22.53-26.85c9.43-4.71,20.06-7.37,31.29-7.37h38.41v29.07Zm46,23.18h-22V63.05h22v76Z"/>
    </g>
  </g>
</svg>
