<?xml version="1.0" encoding="UTF-8"?>
<svg id="Router" xmlns="http://www.w3.org/2000/svg" xmlns:xlink="http://www.w3.org/1999/xlink" viewBox="0 0 512.1 512.1">
  
  <g class="cls-2">
    <g class="cls-1">
      <path d="m395.55,255.55h-11.5v-120.5c0-3.31-2.69-6-6-6s-6,2.69-6,6v120.5h-232v-120.5c0-3.31-2.69-6-6-6s-6,2.69-6,6v120.5h-12.5c-22.64,0-41,18.36-41,41v46c0,22.64,18.36,41,41,41h280c22.64,0,41-18.36,41-41v-46c0-22.64-18.36-41-41-41m17,87c0,9.37-7.63,17-17,17H115.55c-9.37,0-17-7.63-17-17v-46c0-9.37,7.63-17,17-17h280c9.37,0,17,7.63,17,17v46Z"/>
      <path d="m164.05,308.05c6.62,0,12,5.38,12,12s-5.38,12-12,12-12-5.38-12-12,5.38-12,12-12m0-12c-13.26,0-24,10.75-24,24s10.74,24,24,24,24-10.74,24-24-10.75-24-24-24"/>
      <path d="m255.05,326.05h-29c-3.31,0-6-2.69-6-6s2.69-6,6-6h29c3.31,0,6,2.69,6,6s-2.69,6-6,6"/>
      <path d="m301.05,326.05h-29c-3.31,0-6-2.69-6-6s2.69-6,6-6h29c3.31,0,6,2.69,6,6s-2.69,6-6,6"/>
      <path d="m347.05,326.05h-29c-3.31,0-6-2.69-6-6s2.69-6,6-6h29c3.31,0,6,2.69,6,6s-2.69,6-6,6"/>
      <path d="m393.05,326.05h-29c-3.31,0-6-2.69-6-6s2.69-6,6-6h29c3.31,0,6,2.69,6,6s-2.69,6-6,6"/>
      <path d="m300.55,194.05c-1.68,0-3.35-.64-4.62-1.93-3.9-3.94-18.3-16.81-40.2-17.07-21.94-.23-36.67,12.31-40.66,16.17-2.58,2.5-6.69,2.43-9.19-.15-2.5-2.58-2.43-6.7.15-9.19,6.27-6.07,23.68-20.15,49.85-19.83,26.12.31,43.17,14.74,49.29,20.93,2.52,2.55,2.5,6.67-.05,9.19-1.27,1.25-2.92,1.88-4.57,1.88"/>
      <path d="m318.55,176.05c-1.7,0-3.39-.66-4.67-1.98-5.6-5.78-26.24-24.52-57.84-24.52-.2,0-.41,0-.62,0-31.27.24-51.69,18.83-57.21,24.52-2.5,2.58-6.61,2.64-9.19.14-2.58-2.5-2.64-6.61-.14-9.19,6.4-6.61,30.13-28.19,66.44-28.47.24,0,.48,0,.72,0,36.71,0,60.67,21.77,67.17,28.48,2.5,2.58,2.43,6.69-.14,9.19-1.26,1.22-2.89,1.83-4.52,1.83"/>
      <path d="m283.55,211.05c-1.46,0-2.92-.49-4.13-1.49-3.92-3.23-12.26-8.73-24.07-9.2-11.99-.48-20.82,4.48-25.02,7.47-2.92,2.08-6.98,1.41-9.07-1.52-2.08-2.92-1.4-6.98,1.52-9.07,5.55-3.96,17.23-10.5,33.08-9.88,15.62.62,26.65,7.88,31.83,12.16,2.77,2.29,3.16,6.38.88,9.15-1.29,1.56-3.14,2.36-5.02,2.36"/>
      <path d="m267.05,223.05c0,6.63-5.37,12-12,12s-12-5.37-12-12,5.37-12,12-12,12,5.37,12,12"/>
    </g>
  </g>
</svg>
