<?xml version="1.0" encoding="UTF-8"?>
<svg id="Cloud" xmlns="http://www.w3.org/2000/svg" xmlns:xlink="http://www.w3.org/1999/xlink" viewBox="0 0 512 512">
  
  <g class="cls-3">
    <g class="cls-2">
      <path class="cls-1" d="m349.98,126.25l-258.5.5c-32.39.01-58.73,26.36-58.73,58.75v47.33c0,32.4,26.35,58.75,58.75,58.75,12.77,0,15.77,1.64,35.27,12.32,3.3,1.8,7,3.83,11.21,6.1,14,7.54,31.44,21.2,51.62,37.02,22.7,17.79,48.43,37.95,77.39,55.87,2.72,1.68,5.48,3.54,8.41,5.51,16.32,11,36.64,24.68,74.6,24.68,71.47,0,129.64-58.09,129.75-129.55v-48.06c-.29-71.3-58.39-129.22-129.77-129.22m.02,283.33c-30.78,0-46.39-10.51-61.48-20.67-2.98-2.01-6.06-4.08-9.17-6-27.85-17.24-53.03-36.97-75.25-54.38-21.04-16.49-39.21-30.73-54.98-39.22-4.16-2.24-7.81-4.24-11.07-6.03-20.77-11.37-27.77-15.2-46.55-15.2s-35.25-15.81-35.25-35.25v-.36c9.82,7.39,22.03,11.78,35.25,11.78s15.77,1.64,35.27,12.32c3.3,1.8,7,3.83,11.21,6.1,14,7.53,31.44,21.2,51.62,37.02,22.7,17.79,48.43,37.95,77.39,55.87,2.72,1.68,5.48,3.54,8.41,5.51,16.32,11,36.64,24.68,74.6,24.68,40.43,0,76.6-18.59,100.41-47.67-14.42,41.58-53.99,71.5-100.41,71.5m0-47.33c-30.78,0-46.39-10.51-61.48-20.67-2.98-2.01-6.06-4.09-9.17-6.01-27.85-17.23-53.03-36.96-75.25-54.38-21.04-16.48-39.21-30.73-54.98-39.22-4.16-2.24-7.81-4.24-11.06-6.02-20.78-11.37-27.78-15.2-46.56-15.2s-35.07-15.63-35.25-34.92v-.33c0-19.44,15.81-35.25,35.25-35.25l258.5-.5c58.59,0,106.25,47.66,106.25,106.25s-47.66,106.25-106.25,106.25"/>
      <path class="cls-1" d="m92.28,214.59c-15.86,0-28.76-12.9-28.76-28.76s12.9-28.76,28.76-28.76,28.76,12.9,28.76,28.76-12.9,28.76-28.76,28.76m0-34.02c-2.9,0-5.26,2.36-5.26,5.26s2.36,5.26,5.26,5.26,5.26-2.36,5.26-5.26-2.36-5.26-5.26-5.26"/>
      <path class="cls-1" d="m413.56,200.29c-19.41-13.09-41.59,3.16-48.88,8.5-14.52,10.64-29.82,26.3-46.02,42.87-24.57,25.15-28.67,37.36-27.32,48.92,3.15,26.86,35.03,40.95,51.45,44.65,5.08,1.14,9.94,1.61,14.51,1.61,14.88,0,26.71-5.05,33.26-8.67,6.53-3.6,18.97-12.07,28.95-28.36,4.83-7.87,7.97-15.72,10.01-22.59,2.05-6.88,3-12.78,3.45-16.74.24-2.17,5.63-53.31-19.41-70.19m-3.95,67.59c-.53,4.82-2.6,17.36-10.13,29.65-7.16,11.68-15.77,17.59-20.27,20.07-5.65,3.11-17.21,7.86-31.26,4.7-13.09-2.95-31.94-13.08-33.27-24.45-.73-6.27,10.9-19.65,20.79-29.77,15.5-15.86,30.14-30.84,43.1-40.34,4.92-3.6,13.04-8.86,18.57-8.86,1.25,0,2.37.27,3.28.89,6.42,4.33,9.79,20.9,9.79,36.81,0,3.87-.2,7.7-.6,11.3"/>
      <path class="cls-1" d="m300.45,234.66c-3.43,0-6.93-.53-10.52-1.72-14.2-4.69-28.18-19.47-26.99-36.08,1.76-24.54,34.17-35.93,53.05-38.8,19.17-2.91,49.01-.26,52.62,18.96,2.67,14.21-10.8,24.79-25.06,35.99-13.59,10.67-27.56,21.64-43.1,21.64m29-54.1c-3.17,0-6.54.22-9.93.73-16.27,2.47-32.68,11.01-33.13,17.25-.29,4.03,5.32,10.24,10.92,12.09,7.54,2.49,16.97-4.49,31.74-16.09,4.36-3.42,10.96-8.61,14.41-12.3-3.23-.96-8.27-1.67-14-1.67"/>
      <path class="cls-1" d="m256.88,297.29c-13.81,0-27.69-10.83-41.22-21.39-14-10.92-27.21-21.24-27.79-34.91-.26-6.09,2.19-11.87,6.88-16.29,9.65-9.08,26.66-10.89,38.28-9.68,15.81,1.64,47.38,11.53,53.63,37.19,4.31,17.67-5.3,35.06-17.07,41.68-4.22,2.37-8.47,3.4-12.71,3.4m-44.93-56.25c2.66,4.23,12.21,11.69,18.17,16.33,9.98,7.79,23.65,18.46,27.97,16.03,2.96-1.67,7.4-8.86,5.75-15.63-2.6-10.66-20.97-18.11-33.23-19.38-8.4-.87-15.71,1-18.66,2.64"/>
    </g>
  </g>
</svg>
