<?xml version="1.0" encoding="UTF-8"?>
<svg id="Registry" xmlns="http://www.w3.org/2000/svg" xmlns:xlink="http://www.w3.org/1999/xlink" viewBox="0 0 512.1 512.1">
  
  <g class="cls-2">
    <g class="cls-1">
      <rect x="128.05" y="280.05" width="104" height="104" rx="29" ry="29"/>
      <path d="m203.05,292.05c9.37,0,17,7.63,17,17v46c0,9.37-7.63,17-17,17h-46c-9.37,0-17-7.63-17-17v-46c0-9.37,7.63-17,17-17h46Zm0-24h-46c-22.64,0-41,18.36-41,41v46c0,22.64,18.36,41,41,41h46c22.64,0,41-18.36,41-41v-46c0-22.64-18.36-41-41-41"/>
      <rect x="128.05" y="128.05" width="104" height="104" rx="29" ry="29"/>
      <path d="m203.05,140.05c9.37,0,17,7.63,17,17v46c0,9.37-7.63,17-17,17h-46c-9.37,0-17-7.63-17-17v-46c0-9.37,7.63-17,17-17h46Zm0-24h-46c-22.64,0-41,18.36-41,41v46c0,22.64,18.36,41,41,41h46c22.64,0,41-18.36,41-41v-46c0-22.64-18.36-41-41-41"/>
      <rect x="280.05" y="278.05" width="104" height="104" rx="29" ry="29"/>
      <path d="m355.05,290.05c9.37,0,17,7.63,17,17v46c0,9.37-7.63,17-17,17h-46c-9.37,0-17-7.63-17-17v-46c0-9.37,7.63-17,17-17h46Zm0-24h-46c-22.64,0-41,18.36-41,41v46c0,22.64,18.36,41,41,41h46c22.64,0,41-18.36,41-41v-46c0-22.64-18.36-41-41-41"/>
      <rect x="128.05" y="128.05" width="104" height="104" rx="29" ry="29"/>
      <path d="m203.05,140.05c9.37,0,17,7.63,17,17v46c0,9.37-7.63,17-17,17h-46c-9.37,0-17-7.63-17-17v-46c0-9.37,7.63-17,17-17h46Zm0-24h-46c-22.64,0-41,18.36-41,41v46c0,22.64,18.36,41,41,41h46c22.64,0,41-18.36,41-41v-46c0-22.64-18.36-41-41-41"/>
      <path d="m359.43,232.48c-5.05,0-10.05-1.35-14.46-3.89l-39.84-23c-13.85-8-18.61-25.77-10.61-39.62l23-39.84c5.17-8.95,14.81-14.51,25.15-14.51,5.05,0,10.05,1.35,14.46,3.89l39.84,23c13.85,7.99,18.61,25.77,10.61,39.61l-23,39.84c-5.17,8.95-14.8,14.51-25.15,14.51"/>
      <path d="m342.67,99.62v24c2.99,0,5.84.77,8.46,2.28l39.84,23c3.93,2.27,6.74,5.94,7.92,10.32,1.17,4.39.57,8.97-1.7,12.9l-23,39.84c-3.03,5.25-8.68,8.51-14.76,8.51-2.99,0-5.84-.77-8.46-2.29l-39.84-23c-3.93-2.27-6.75-5.94-7.92-10.32-1.17-4.39-.57-8.97,1.7-12.9l23-39.84c3.03-5.25,8.69-8.51,14.76-8.51v-24Zm0,0c-14.17,0-27.95,7.35-35.55,20.51l-23,39.84c-11.32,19.61-4.6,44.68,15.01,56.01l39.84,23c6.46,3.73,13.51,5.5,20.46,5.5,14.17,0,27.95-7.35,35.55-20.51l23-39.84c11.32-19.61,4.6-44.68-15.01-56.01l-39.84-23c-6.46-3.73-13.51-5.5-20.46-5.5"/>
    </g>
  </g>
</svg>
