<?xml version="1.0" encoding="UTF-8"?>
<svg id="VPN" xmlns="http://www.w3.org/2000/svg" xmlns:xlink="http://www.w3.org/1999/xlink" viewBox="0 0 512.1 512.1">
  
  <g class="cls-1">
    <g class="cls-2">
      <path d="m256.05,511.82l-6.99-5.02c-46.12-33.08-85.83-76.56-118.03-129.22-5.43-8.84-10.86-18.39-16.13-28.37-14.86-28.27-27.34-58.29-37.08-89.25-4.98-15.71-9.35-32.03-13-48.49-8.44-38.05-13.13-77.52-13.93-117.3-.1-3.89-.15-8.07-.15-12.74,0-.95,0-1.94.03-2.89l.38-11.61h11.62c43.69,0,86.48-9.37,127.19-27.86,20.02-9.09,39.56-20.45,58.08-33.76l7.06-5.07,7.02,5.13c.17.12.32.24.49.35l.41.28c18.47,13.19,37.97,24.45,57.96,33.45,40.42,18.23,82.93,27.48,126.34,27.48.59,0,1.17,0,1.76-.01l11.86-.24.37,11.86c.03.96.03,1.91.03,2.89,0,4.67-.05,8.86-.15,12.81-.8,39.71-5.49,79.17-13.93,117.24-3.62,16.39-7.99,32.71-12.97,48.5-11.97,37.92-27.8,74.01-47.05,107.24-2.33,4.01-4.3,7.32-6.2,10.41-32.18,52.62-71.89,96.1-118.01,129.18l-6.99,5.02ZM74.82,90.7c.02.99.04,1.96.06,2.92.77,38.26,5.27,76.14,13.37,112.66,3.49,15.77,7.68,31.4,12.45,46.45,9.32,29.62,21.23,58.31,35.43,85.29,5.01,9.5,10.18,18.59,15.35,27.01,28.88,47.24,64.03,86.6,104.56,117.12,40.53-30.53,75.68-69.88,104.55-117.1,1.82-2.94,3.68-6.07,5.89-9.88,18.37-31.72,33.49-66.18,44.93-102.43,4.77-15.12,8.96-30.75,12.43-46.46,8.1-36.53,12.6-74.41,13.37-112.6.02-.96.04-1.93.06-2.92-43.35-1.32-85.73-11.21-126.15-29.44-19.28-8.68-38.11-19.31-56.08-31.63-17.7,12.13-36.22,22.61-55.16,31.21-40.1,18.21-82.12,28.21-125.06,29.79"/>
      <path d="m280.55,393.55c-3.19,0-6.37-1.26-8.73-3.76-1.52-1.61-7.14-6.88-15.79-7.25-9.45-.41-15.9,5.42-17.1,6.59-4.74,4.63-12.34,4.54-16.97-.2-4.63-4.74-4.54-12.34.2-16.97,3.43-3.35,16.09-14.21,34.9-13.41,17.19.73,28.26,10.56,32.21,14.75,4.55,4.82,4.33,12.41-.48,16.96-2.32,2.19-5.28,3.28-8.24,3.28"/>
      <path d="m177.55,339.55c-3.03,0-6.07-1.14-8.4-3.43-4.73-4.64-4.81-12.24-.17-16.97,8.44-8.61,39.59-36.6,87.07-36.6.18,0,.37,0,.55,0,47.19.22,78.15,28.07,86.52,36.6,4.64,4.73,4.56,12.33-.17,16.97-4.73,4.64-12.33,4.57-16.97-.17-6.72-6.85-31.59-29.23-69.48-29.4-.15,0-.3,0-.44,0-38.14,0-63.15,22.49-69.93,29.4-2.35,2.4-5.46,3.6-8.57,3.6"/>
      <path d="m308.05,366.05c-3.2,0-6.39-1.27-8.75-3.78-4.09-4.35-19.25-18.55-42.84-18.71-.13,0-.27,0-.4,0-23.49,0-38.72,13.99-42.85,18.3-4.58,4.79-12.18,4.95-16.97.37-4.79-4.58-4.95-12.18-.37-16.97,5.83-6.09,27.45-25.96,60.75-25.7,33.13.23,54.43,20.18,60.16,26.28,4.54,4.83,4.3,12.42-.53,16.96-2.32,2.18-5.27,3.25-8.21,3.25"/>
      <path d="m256.05,394.05c6.63,0,12,5.37,12,12s-5.37,12-12,12-12-5.37-12-12,5.37-12,12-12"/>
      <path d="m218.94,121.95h-.04c-.34,0-.68.01-1.01.05-.06,0-.12,0-.17.01-.15,0-.3.03-.45.05-.63.09-1.25.22-1.85.41-.19.06-.37.12-.55.18-.19.07-.37.14-.55.21-.18.07-.36.15-.53.23-1.24.59-2.38,1.38-3.36,2.36-.72.71-1.33,1.51-1.84,2.36l-.27.48c-.18.34-.35.7-.5,1.06-.14.34-.27.68-.38,1.03,0,.03-.02.06-.03.09-.1.35-.19.7-.27,1.06-.09.45-.15.91-.19,1.37-.03.35-.05.7-.05,1.05v106.18c0,6.63,5.38,12,12,12s12-5.37,12-12v-37.13c14.56-1.22,25.75-4.4,33.98-9.64,11.27-7.16,17.22-18.34,17.22-32.31s-8.21-38.96-63.16-39.1m11.96,56.97v-32.42c12.51,1.17,27.2,4.64,27.2,14.55,0,5.16,0,15.24-27.2,17.87"/>
      <path d="m197.17,137.52l-31.69,105s-.02.05-.03.08c-.11.37-.24.72-.39,1.06-.09.25-.2.48-.32.71-.11.25-.24.49-.39.72-.08.15-.17.31-.28.46-.08.13-.16.26-.25.38-.08.11-.16.23-.25.34-.09.13-.19.25-.29.37-.1.13-.21.26-.34.39-.09.12-.19.23-.3.33-.08.1-.17.19-.27.27-.14.15-.29.28-.44.41-.08.08-.16.15-.25.21-.15.14-.3.26-.46.37-.07.06-.15.12-.24.18-.22.16-.45.31-.68.45-.23.15-.46.28-.7.4-.08.05-.16.09-.24.12-.22.12-.45.22-.67.31-.04.03-.08.04-.12.05-.24.11-.48.2-.72.28-.07.03-.15.05-.24.08-.2.06-.41.12-.62.17-.11.04-.22.06-.33.09-.18.04-.38.08-.57.11-.15.03-.3.06-.46.07-.25.04-.5.07-.76.08-.29.03-.57.04-.86.04h0c-.37,0-.75-.02-1.13-.06-.5-.04-1-.12-1.48-.22-.05,0-.11-.03-.16-.04-.27-.07-.53-.14-.78-.22-.58-.17-1.14-.39-1.67-.65-.26-.13-.52-.26-.77-.41,0,0-.02,0-.03-.01-.17-.1-.33-.2-.49-.31-.13-.07-.26-.16-.38-.25-.12-.08-.23-.16-.34-.25-.13-.08-.25-.18-.37-.29-.16-.12-.32-.26-.47-.4-.06-.05-.11-.1-.17-.16-.12-.11-.24-.22-.36-.35-.18-.18-.34-.36-.5-.55-.21-.24-.41-.48-.59-.74-.16-.21-.31-.43-.45-.66-.07-.1-.13-.2-.19-.31-.08-.13-.15-.26-.21-.39-.09-.13-.16-.27-.22-.41-.07-.14-.14-.29-.2-.43-.08-.16-.15-.33-.21-.5-.03-.05-.05-.11-.07-.16l-38.94-103.43c-2.34-6.21.8-13.13,7-15.46,6.2-2.34,13.13.8,15.46,7l26.46,70.28,21.46-71.09c1.91-6.34,8.61-9.93,14.95-8.02,6.35,1.92,9.94,8.61,8.02,14.96"/>
      <path d="m157.85,250.41c.24-.08.48-.17.72-.28-.12.06-.23.11-.35.15-.12.05-.25.09-.37.13"/>
      <path d="m150.45,250.51c.25.08.51.15.78.22-.24-.06-.47-.12-.71-.19-.02-.01-.05-.01-.07-.03"/>
      <path d="m151.39,250.77c.48.1.98.18,1.48.22-.49-.04-.98-.11-1.48-.22"/>
      <path d="m291.91,128.35c-.23.43-.43.88-.6,1.33.16-.46.36-.9.6-1.33"/>
      <path d="m385.05,134.83v106.22c0,6.63-5.37,12-12,12-4.56,0-8.52-2.54-10.55-6.27-.02-.04-.03-.07-.05-.09l-47.93-72.73v66.17c0,6.63-5.37,12-12,12s-12-5.37-12-12v-106.17c0-.21,0-.42.02-.63,0-.11.01-.21.02-.32.01-.17.03-.34.05-.51.03-.24.06-.48.11-.72.04-.22.09-.45.14-.68,0-.05.03-.1.04-.15.05-.19.11-.39.17-.58.07-.23.15-.46.24-.69.17-.45.37-.9.6-1.33.2-.38.42-.75.66-1.11.04-.07.09-.13.14-.2.13-.19.27-.37.41-.55.15-.19.31-.38.48-.57.01-.01.02-.02.03-.04.16-.17.32-.34.49-.5.17-.17.35-.33.53-.49.02-.02.04-.03.06-.06.19-.15.38-.3.57-.45.21-.16.42-.31.64-.45.24-.16.49-.31.74-.45.05-.03.1-.05.14-.08.23-.12.46-.24.69-.34.21-.1.43-.2.65-.28.08-.04.17-.07.26-.1.04-.02.08-.03.13-.04.19-.08.39-.14.6-.2.22-.07.44-.13.67-.18.39-.09.77-.16,1.16-.21.18-.02.37-.04.56-.05.11-.02.22-.03.33-.03.43-.03.86-.03,1.29,0,.1,0,.21.01.32.02.17.01.34.03.51.05.24.03.48.06.72.11.22.04.45.09.68.14.05,0,.1.03.15.04.19.05.39.11.58.17.23.07.46.15.69.24.45.17.9.37,1.33.6.04.02.08.04.12.06.18.1.35.2.52.3.25.15.49.31.73.48.16.12.33.24.49.37.19.15.38.31.57.48,0,.01.02.02.04.03.17.16.34.32.5.49.17.17.33.35.49.53.02.02.03.04.06.06.29.35.56.71.83,1.1.02.03.05.07.07.11l.28.43,48.23,73.17v-66.12c0-6.62,5.37-12,12-12s12,5.38,12,12"/>
    </g>
  </g>
</svg>
