<?xml version="1.0" encoding="UTF-8"?>
<svg id="Exclamation_mark" xmlns="http://www.w3.org/2000/svg" xmlns:xlink="http://www.w3.org/1999/xlink" viewBox="0 0 512.1 512.1">
  
  <g class="cls-2">
    <g class="cls-1">
      <path d="m256.05,441.05c-10.48,0-19-8.52-19-19s8.52-19,19-19,19,8.52,19,19-8.52,19-19,19"/>
      <path d="m256.05,415.05c3.86,0,7,3.14,7,7s-3.14,7-7,7-7-3.14-7-7,3.14-7,7-7m0-24c-17.12,0-31,13.88-31,31s13.88,31,31,31,31-13.88,31-31-13.88-31-31-31"/>
      <path d="m256.05,346.05c-10.48,0-19-8.52-19-19V90.05c0-10.48,8.52-19,19-19s19,8.52,19,19v237c0,10.48-8.52,19-19,19"/>
      <path d="m256.05,83.05c3.86,0,7,3.14,7,7v237c0,3.86-3.14,7-7,7s-7-3.14-7-7V90.05c0-3.86,3.14-7,7-7m0-24c-17.12,0-31,13.88-31,31v237c0,17.12,13.88,31,31,31s31-13.88,31-31V90.05c0-17.12-13.88-31-31-31"/>
    </g>
  </g>
</svg>
