<?xml version="1.0" encoding="UTF-8"?>
<svg id="Insights" xmlns="http://www.w3.org/2000/svg" xmlns:xlink="http://www.w3.org/1999/xlink" viewBox="0 0 512.1 512.1">
  
  <g class="cls-2">
    <g class="cls-1">
      <path d="m396.05,361.8c29.22,0,53-23.78,53-53v-144c0-29.22-23.78-53-53-53H116.05c-29.22,0-53,23.78-53,53v144c0,29.22,23.78,53,53,53h113v14.5H75.05c-6.63,0-12,5.37-12,12s5.37,12,12,12h362c6.63,0,12-5.37,12-12s-5.37-12-12-12h-155v-14.5h114Zm-280-24c-15.99,0-29-13.01-29-29v-144c0-15.99,13.01-29,29-29h280c15.99,0,29,13.01,29,29v144c0,15.99-13.01,29-29,29H116.05Z"/>
      <path d="m345.3,316.05h-178.5c-6.63,0-12-5.37-12-12s5.37-12,12-12h178.5c6.63,0,12,5.37,12,12s-5.37,12-12,12"/>
      <path d="m190.05,284.05c-6.63,0-12-5.37-12-12v-28c0-6.63,5.37-12,12-12s12,5.37,12,12v28c0,6.63-5.37,12-12,12"/>
      <path d="m223.05,284.05c-6.63,0-12-5.37-12-12v-85c0-6.63,5.37-12,12-12s12,5.37,12,12v85c0,6.63-5.37,12-12,12"/>
      <path d="m256.05,283.05c-6.63,0-12-5.37-12-12v-47c0-6.63,5.37-12,12-12s12,5.37,12,12v47c0,6.63-5.37,12-12,12"/>
      <path d="m323.05,282.05c-6.63,0-12-5.37-12-12v-66c0-6.63,5.37-12,12-12s12,5.37,12,12v66c0,6.63-5.37,12-12,12"/>
      <path d="m289.05,283.05c-6.63,0-12-5.37-12-12v-100c0-6.63,5.37-12,12-12s12,5.37,12,12v100c0,6.63-5.37,12-12,12"/>
    </g>
  </g>
</svg>
