<?xml version="1.0" encoding="UTF-8"?>
<svg id="Instrance" xmlns="http://www.w3.org/2000/svg" xmlns:xlink="http://www.w3.org/1999/xlink" viewBox="0 0 512.1 512.1">
  
  <g class="cls-2">
    <g class="cls-1">
      <path d="m142.55,282.5c-22.58,0-40.95-18.37-40.95-40.95v-99c0-22.58,18.37-40.95,40.95-40.95h99c22.58,0,40.95,18.37,40.95,40.95v12l-86.95-.05c-22.64,0-41.05,18.42-41.05,41.05v86.95h-11.95Z"/>
      <path d="m241.55,101.65c22.55,0,40.9,18.35,40.9,40.9v11.9h-86.9c-22.66,0-41.1,18.44-41.1,41.1v86.9h-11.9c-22.55,0-40.9-18.35-40.9-40.9v-99c0-22.55,18.35-40.9,40.9-40.9h99Zm0-.1h-99c-22.64,0-41,18.36-41,41v99c0,22.64,18.36,41,41,41h12v-87c0-22.64,18.36-41,41-41h87v-12c0-22.64-18.36-41-41-41"/>
      <rect x="229.6" y="229.6" width="180.9" height="180.9" rx="40.95" ry="40.95"/>
      <path d="m369.55,229.65c22.55,0,40.9,18.35,40.9,40.9v99c0,22.55-18.35,40.9-40.9,40.9h-99c-22.55,0-40.9-18.35-40.9-40.9v-99c0-22.55,18.35-40.9,40.9-40.9h99Zm0-.1h-99c-22.64,0-41,18.36-41,41v99c0,22.64,18.36,41,41,41h99c22.64,0,41-18.36,41-41v-99c0-22.64-18.36-41-41-41"/>
      <path d="m206.55,346.5c-22.58,0-40.95-18.37-40.95-40.95v-99c0-22.58,18.37-40.95,40.95-40.95h99c22.58,0,40.95,18.37,40.95,40.95v12l-86.95-.05c-22.64,0-41.05,18.42-41.05,41.05v86.95h-11.95Z"/>
      <path d="m305.55,165.65c22.55,0,40.9,18.35,40.9,40.9v11.9h-86.9c-22.66,0-41.1,18.44-41.1,41.1v86.9h-11.9c-22.55,0-40.9-18.35-40.9-40.9v-99c0-22.55,18.35-40.9,40.9-40.9h99Zm0-.1h-99c-22.64,0-41,18.36-41,41v99c0,22.64,18.36,41,41,41h12v-87c0-22.64,18.36-41,41-41h87v-12c0-22.64-18.36-41-41-41"/>
    </g>
  </g>
</svg>
