<?xml version="1.0" encoding="UTF-8"?>
<svg id="Steak" xmlns="http://www.w3.org/2000/svg" xmlns:xlink="http://www.w3.org/1999/xlink" viewBox="0 0 512.1 512.1">
  
  <g class="cls-1">
    <g class="cls-3">
      <path d="m301.05,143.05c-37.85,0-70.69,21.46-87,52.87-3.58-.57-7.26-.87-11-.87-30.05,0-55.61,19.2-65.07,46.01-17.26.28-32.84,7.38-44.19,18.73-11.58,11.58-18.74,27.58-18.74,45.26,0,35.35,28.65,64,64,64h234c17.68,0,33.68-7.16,45.26-18.74,11.58-11.58,18.74-27.58,18.74-45.26,0-26.15-15.68-48.64-38.16-58.57.11-1.8.16-3.61.16-5.43,0-54.12-43.88-98-98-98m-72.39,82.58c.19-.92.4-1.83.63-2.73,1.69-6.72,4.31-13.08,7.7-18.93,12.81-22.07,36.7-36.92,64.06-36.92,40.87,0,74,33.13,74,74v.03c0,8.39-1.4,16.45-3.98,23.97h1.98c7.82,0,15.11,2.25,21.27,6.12,11.26,7.08,18.73,19.61,18.73,33.88,0,11.04-4.48,21.04-11.72,28.28-7.24,7.24-17.24,11.72-28.28,11.72h-234c-22.09,0-40-17.91-40-40,0-11.04,4.48-21.04,11.72-28.28,6.13-6.13,14.24-10.28,23.29-11.41,1.63-.2,3.3-.31,4.99-.31h17c0-8.77,2.4-16.98,6.58-24,8.2-13.77,23.23-23,40.42-23,.91,0,1.81.03,2.7.08,8.42.47,16.25,3.17,22.91,7.5"/>
    </g>
  </g>
</svg>
