<?xml version="1.0" encoding="UTF-8"?>
<svg id="Gears" xmlns="http://www.w3.org/2000/svg" xmlns:xlink="http://www.w3.org/1999/xlink" viewBox="0 0 512.1 512.1">
  
  <g class="cls-2">
    <g class="cls-1">
      <path d="m243.44,425.05l-12.03-42.39-6.73-1.69c-11.59-2.91-22.68-7.43-32.96-13.44l-5.92-3.46-39.04,21.78-19.15-19.15,21.77-39.03-3.46-5.92c-5.86-10.03-10.3-20.81-13.19-32.05l-1.72-6.68-44.77-12.71v-27.09l47.45-13.47v-7.42c2.22-7.71,5.18-15.18,8.82-22.3h13.33l-29.68-53.2,19.16-19.16,41.51,23.15,5.89-3.37c9.69-5.55,20.12-9.79,30.98-12.6l6.66-1.72,13.08-46.08h27.09l13.26,46.7,6.46,1.82c7.82,2.2,15.42,5.15,22.66,8.8v13.28l53.71-29.96,19.16,19.16-29.97,53.72h13.28c3.57,7.07,6.45,14.44,8.6,22.01v7.43l8.72,2.49,37.84,10.74v27.09l-45.97,13.05v7.54c-2.84,10.64-7.07,20.84-12.58,30.34l-3.42,5.9,22.06,39.55-19.16,19.16-39.34-21.94-5.92,3.48c-9.59,5.63-19.9,9.97-30.64,12.9l-6.54,1.78-12.2,42.97h-27.09Zm11.38-230.95c-35.36,0-64.13,28.76-64.13,64.12s28.77,64.13,64.13,64.13,64.12-28.77,64.12-64.13-28.76-64.12-64.12-64.12"/>
      <path d="m261.46,99.05l8.95,31.52,3.67,12.92,12.93,3.63c4.74,1.33,9.39,2.97,13.9,4.9v26.07l35.69-19.91,27.94-15.59,6.33,6.33-15.59,27.95-19.91,35.69h26.07c1.63,3.83,3.05,7.75,4.25,11.73v14.79l17.45,4.95,29.11,8.27v8.95l-28.52,8.1-17.45,4.96v14.98c-2.56,9.09-6.24,17.79-10.96,25.93l-6.85,11.81,6.65,11.93,14.32,25.67-6.33,6.34-25.42-14.18-12-6.69-11.85,6.96c-8.67,5.09-18,9.02-27.71,11.67l-13.07,3.56-3.7,13.04-7.88,27.74h-8.96l-7.66-26.99-3.79-13.35-13.46-3.38c-10.49-2.63-20.52-6.72-29.83-12.16l-11.84-6.92-11.97,6.68-25.13,14.02-6.33-6.33,14.01-25.12,6.68-11.97-6.92-11.83c-5.3-9.07-9.31-18.82-11.92-28.98l-3.43-13.35-13.26-3.77-29.42-8.35v-8.95l30-8.52,17.45-4.96v-14.74c1.25-4.1,2.72-8.12,4.42-12.04h26.16l-19.91-35.69-15.3-27.43,6.33-6.33,27.66,15.43,11.85,6.61,11.77-6.74c8.77-5.02,18.19-8.86,28.02-11.4l13.32-3.45,3.76-13.23,8.73-30.74h8.96Zm-6.64,235.3c41.97,0,76.12-34.15,76.12-76.13s-34.15-76.12-76.12-76.12-76.13,34.15-76.13,76.12,34.15,76.13,76.13,76.13m24.78-259.3h-45.23l-13.68,48.19c-11.75,3.04-23.17,7.64-33.94,13.81l-43.5-24.26-31.98,31.98,24.14,43.27s0,0,0,0c-6.03,10.36-10.59,21.32-13.7,32.63h0s-47.45,13.48-47.45,13.48v45.22l46.86,13.31c3.13,12.18,7.95,24,14.45,35.12l-22.85,40.96,31.98,31.98,40.97-22.86c11.41,6.67,23.58,11.58,36.1,14.72l12.61,44.44h45.23l12.83-45.18c11.63-3.17,22.92-7.88,33.56-14.13l41.26,23.01,31.98-31.98-23.15-41.51c6.4-11.03,11.13-22.76,14.2-34.82h0s45.97-13.06,45.97-13.06v-45.22l-46.56-13.22h0c-3.04-11.22-7.54-22.1-13.44-32.37,0,0,0-.01,0-.01l24.43-43.79-31.98-31.98-43.78,24.42s0,0,0,0c-9.99-5.74-20.55-10.14-31.4-13.19l-13.9-48.96Zm-24.78,235.3c-28.78,0-52.13-23.35-52.13-52.13s23.35-52.12,52.13-52.12,52.12,23.34,52.12,52.12-23.35,52.13-52.12,52.13"/>
    </g>
  </g>
</svg>
