<?xml version="1.0" encoding="UTF-8"?>
<svg id="VM" xmlns="http://www.w3.org/2000/svg" xmlns:xlink="http://www.w3.org/1999/xlink" viewBox="0 0 512.1 512.1">
  
  <g class="cls-2">
    <g class="cls-1">
      <path d="m422.05,361.8c14.89,0,27-12.11,27-27v-196c0-14.89-12.11-27-27-27H90.05c-14.89,0-27,12.11-27,27v196c0,14.89,12.11,27,27,27h139v14.5H75.05c-6.63,0-12,5.37-12,12s5.37,12,12,12h362c6.63,0,12-5.37,12-12s-5.37-12-12-12h-155v-14.5h140Zm-332-24c-1.65,0-3-1.35-3-3v-196c0-1.65,1.35-3,3-3h332c1.65,0,3,1.35,3,3v196c0,1.65-1.35,3-3,3H90.05Z"/>
      <path d="m256.05,218.46c-1.33,0-2.67-.22-3.95-.67l-65.05-22.66c-4.82-1.68-8.05-6.23-8.05-11.33s3.23-9.65,8.05-11.33l65.05-22.66c2.56-.89,5.34-.89,7.89,0l65.05,22.66c4.82,1.68,8.05,6.23,8.05,11.33s-3.23,9.65-8.05,11.33l-65.05,22.66c-1.28.45-2.61.67-3.95.67m-28.57-34.66l28.57,9.95,28.57-9.95-28.57-9.95-28.57,9.95Z"/>
      <path d="m240.05,324.8c-1.82,0-3.64-.41-5.32-1.24l-65.64-32.47c-4.09-2.02-6.68-6.19-6.68-10.76v-71.05c0-3.9,1.9-7.57,5.09-9.81,3.19-2.25,7.28-2.8,10.96-1.48l65.64,23.52c4.77,1.71,7.95,6.23,7.95,11.3v80c0,4.15-2.14,8.01-5.67,10.19-1.93,1.2-4.13,1.81-6.33,1.81m-53.64-51.92l41.64,20.6v-52.23l-41.64-14.92v46.55Z"/>
      <path d="m270.63,325.27c-2.2,0-4.4-.61-6.33-1.81-3.52-2.19-5.67-6.04-5.67-10.19v-80c0-5.07,3.18-9.59,7.95-11.3l65.64-23.52c3.68-1.32,7.76-.76,10.95,1.48,3.19,2.25,5.09,5.91,5.09,9.81v71.05c0,4.56-2.59,8.73-6.68,10.76l-65.65,32.47c-1.68.83-3.5,1.24-5.32,1.24m12-83.55v52.23l41.64-20.6v-46.55l-41.64,14.92Z"/>
    </g>
  </g>
</svg>
