<?xml version="1.0" encoding="UTF-8"?>
<svg id="Active_directory" xmlns="http://www.w3.org/2000/svg" xmlns:xlink="http://www.w3.org/1999/xlink" viewBox="0 0 512.1 512.1">
  
  <g class="cls-2">
    <g class="cls-1">
      <path d="m245.08,188.89l-77.4,88.87c2.75,3.9,4.37,8.66,4.37,13.79,0,2.97-.54,5.82-1.54,8.45l70.23,50.07c2.67-2.22,5.84-3.87,9.31-4.76v-154.52c-1.74-.45-3.41-1.09-4.97-1.9m99.19,89.08l-77.48-88.97c-1.49.76-3.08,1.36-4.74,1.79v154.52c3.5.9,6.69,2.57,9.38,4.82l70.2-50.04c-1.03-2.66-1.58-5.53-1.58-8.54,0-5.04,1.56-9.71,4.22-13.58m0,0l-77.48-88.97c-1.49.76-3.08,1.36-4.74,1.79v154.52c3.5.9,6.69,2.57,9.38,4.82l70.2-50.04c-1.03-2.66-1.58-5.53-1.58-8.54,0-5.04,1.56-9.71,4.22-13.58m-176.59-.21c2.75,3.9,4.37,8.66,4.37,13.79,0,2.97-.54,5.82-1.54,8.45l70.23,50.07c2.67-2.22,5.84-3.87,9.31-4.76v-154.52c-1.74-.45-3.41-1.09-4.97-1.9l-77.4,88.87Zm242.85-14.03l-120.32-181.34c-16.22-24.44-52.11-24.44-68.33,0l-120.31,181.34c-10.78,16.24-8.63,37.82,5.13,51.62l120.32,120.64c16.02,16.07,42.04,16.07,58.06,0l120.32-120.64c13.76-13.8,15.91-35.38,5.13-51.62m-46.48,51.82c-5.9,0-11.3-2.13-15.48-5.67l-70.14,50.01c1.05,2.69,1.62,5.61,1.62,8.66,0,13.25-10.75,24-24,24s-24-10.75-24-24c0-3.09.59-6.04,1.66-8.76l-70.1-49.98c-4.19,3.58-9.63,5.74-15.56,5.74-13.25,0-24-10.75-24-24s10.75-24,24-24c3.76,0,7.33.87,10.5,2.42l77.57-89.06c-2.57-3.82-4.07-8.42-4.07-13.36,0-13.25,10.75-24,24-24s24,10.75,24,24c0,5.03-1.55,9.71-4.21,13.57l77.48,88.97c3.23-1.63,6.87-2.54,10.73-2.54,13.25,0,24,10.75,24,24s-10.75,24-24,24m-97.26-126.55c-1.49.76-3.08,1.36-4.74,1.79v154.52c3.5.9,6.69,2.57,9.38,4.82l70.2-50.04c-1.03-2.66-1.58-5.53-1.58-8.54,0-5.04,1.56-9.71,4.22-13.58l-77.48-88.97Zm-99.11,88.76c2.75,3.9,4.37,8.66,4.37,13.79,0,2.97-.54,5.82-1.54,8.45l70.23,50.07c2.67-2.22,5.84-3.87,9.31-4.76v-154.52c-1.74-.45-3.41-1.09-4.97-1.9l-77.4,88.87Zm77.4-88.87l-77.4,88.87c2.75,3.9,4.37,8.66,4.37,13.79,0,2.97-.54,5.82-1.54,8.45l70.23,50.07c2.67-2.22,5.84-3.87,9.31-4.76v-154.52c-1.74-.45-3.41-1.09-4.97-1.9m99.19,89.08l-77.48-88.97c-1.49.76-3.08,1.36-4.74,1.79v154.52c3.5.9,6.69,2.57,9.38,4.82l70.2-50.04c-1.03-2.66-1.58-5.53-1.58-8.54,0-5.04,1.56-9.71,4.22-13.58"/>
    </g>
  </g>
</svg>
