<?xml version="1.0" encoding="UTF-8"?>
<svg id="Key" xmlns="http://www.w3.org/2000/svg" xmlns:xlink="http://www.w3.org/1999/xlink" viewBox="0 0 512.1 512.1">
  
  <g class="cls-1">
    <g class="cls-3">
      <path d="m397.62,375.34l-14.41-14.44-2.13-2.13-139.56-139.87c-.51-.52-1.06-.97-1.64-1.38,17.01-24.91,14.46-59.16-7.65-81.27-12.5-12.5-28.87-18.75-45.25-18.75s-32.76,6.25-45.26,18.75c-24.99,24.99-24.99,65.51,0,90.5,12.5,12.5,28.88,18.75,45.26,18.75,12.68,0,25.36-3.75,36.23-11.23.38.56.82,1.08,1.32,1.58l103.94,104.16-17.9,17.9c-4.69,4.69-4.69,12.29,0,16.97,2.35,2.34,5.42,3.52,8.49,3.52s6.14-1.18,8.48-3.52l17.88-17.88,11.29,11.32-17.79,17.79c-4.68,4.69-4.68,12.29,0,16.98,2.34,2.34,5.42,3.51,8.49,3.51s6.14-1.17,8.48-3.51l17.78-17.78,6.96,6.98c2.34,2.35,5.42,3.53,8.49,3.53s6.14-1.17,8.48-3.51c4.69-4.68,4.7-12.28.02-16.97m-210.64-153.84c-10.69,0-20.73-4.16-28.29-11.72-15.59-15.59-15.59-40.97,0-56.56,7.56-7.56,17.6-11.72,28.29-11.72s20.73,4.16,28.28,11.72c15.6,15.59,15.6,40.97,0,56.56-7.55,7.56-17.6,11.72-28.28,11.72"/>
      <path d="m383.21,360.9l-2.13-2.13c.4.3.78.64,1.15,1.01.36.36.69.73.98,1.12"/>
    </g>
  </g>
</svg>
