<?xml version="1.0" encoding="UTF-8"?>
<svg id="Box" xmlns="http://www.w3.org/2000/svg" xmlns:xlink="http://www.w3.org/1999/xlink" viewBox="0 0 512.1 512.1">
  
  <g class="cls-2">
    <g class="cls-1">
      <path d="m258.73,63.28c-.39-.08-.78-.14-1.16-.17.39.03.78.08,1.16.17"/>
      <path d="m475.64,206.25l-27.28-60.89c-1.13-2.5-3-4.43-5.24-5.64h0c-.55-.35-1.15-.66-1.77-.92l-180.26-74.8-.07-.03c-.17-.07-.34-.14-.52-.2-.03,0-.07-.03-.1-.04-.17-.06-.34-.11-.52-.17-.19-.05-.38-.11-.57-.15-.19-.05-.38-.09-.57-.13-.39-.08-.78-.14-1.16-.17-.16-.02-.31-.03-.46-.04-.11-.02-.22-.02-.33-.01-.3-.01-.61-.01-.91.01-.26,0-.52.03-.79.06-.05,0-.09,0-.14.02-.25.03-.5.07-.76.12-.06.01-.13.02-.19.03-.24.06-.49.11-.74.18-.04,0-.09.03-.13.04-.23.06-.45.12-.68.2l-180.77,63.31c-.78.28-1.5.64-2.19,1.06-.26.15-.52.3-.77.47-.13.08-.26.17-.38.27-1.51,1.09-2.78,2.56-3.67,4.35l-27.95,56.33c-.04.07-.07.15-.11.22-.09.17-.17.34-.24.52-.01.03-.03.07-.04.1-.15.37-.29.75-.4,1.13-.06.19-.11.38-.16.57-.05.2-.09.39-.13.58-.04.19-.07.38-.1.57-.05.39-.09.77-.11,1.16-.01.2-.01.39-.01.6v.13c0,.24.01.48.03.72.03.44.09.88.17,1.3.08.43.18.86.31,1.27.08.28.17.55.28.82.1.28.21.54.34.81.12.26.25.52.39.77h0c.13.23.26.45.4.66.03.05.06.1.1.16.13.19.26.38.41.57.03.04.06.09.1.13.16.21.33.41.51.61.16.19.34.38.52.55.05.05.1.1.15.16.15.13.3.27.45.4.06.06.13.12.2.16.18.16.36.3.55.43.04.04.08.07.13.1.17.12.35.24.53.35.32.21.65.4,1,.57.03.02.06.03.09.05.09.05.18.09.27.13.13.06.25.12.38.17.03,0,.07.03.1.04l20.59,8.51v146.72c-.23,4.91,2.59,9.67,7.39,11.66l179.97,74.73.13.06c.07.05.16.08.23.12.27.14.53.26.8.36.29.12.57.22.86.31.02,0,.03,0,.05.02.27.08.55.16.83.22.6.14,1.22.24,1.84.28.3.03.6.04.9.04.21,0,.41,0,.62-.02,1.11-.06,2.24-.27,3.35-.66l.24-.08,180.76-63.38c4.8-1.69,7.85-6.11,8.01-10.91,0-.2.02-.4.02-.61v-144.24l18.86-6.4c1.33-.45,2.52-1.11,3.56-1.94.19-.13.37-.28.54-.44,4.04-3.34,5.52-9.09,3.27-14.12m-411.76-17.5l17.2-34.66,159.49,66.07-16.98,34.6L63.88,188.75Zm180.53,230.26l-157-65.19v-129.37l137.23,56.72.18.07c.2.08.4.16.59.23.22.08.44.15.66.21.15.04.3.09.45.12.2.05.39.09.58.13.16.04.33.06.49.09.38.06.76.1,1.14.12.22,0,.45.02.67.02.39,0,.78-.02,1.16-.06.2-.02.39-.04.59-.07.37-.05.73-.13,1.09-.22.2-.04.39-.1.59-.16.02,0,.04,0,.06,0,.25-.08.5-.16.74-.26.24-.09.48-.18.71-.29.11-.04.21-.09.31-.15.2-.09.39-.19.58-.3.02,0,.04-.01.05-.03.21-.11.42-.24.62-.37.07-.04.14-.08.2-.13.17-.11.34-.23.51-.36.06-.04.12-.09.18-.13.16-.12.31-.25.46-.39.31-.25.6-.53.88-.83.09-.09.17-.18.24-.27.15-.16.29-.32.42-.49h0c.16-.21.32-.42.47-.64.03-.04.06-.09.09-.14.14-.21.28-.42.4-.64.15-.25.29-.51.42-.78l4.23-8.62v152.19Zm15.14-219.1v-110.57l144.03,59.78-144.03,50.79Zm165.86,165.17l-157,55.05v-153.7l4.96,10.8c.1.24.21.47.34.7.06.13.13.26.2.38.38.71.85,1.38,1.37,1.98.12.16.26.31.4.45.34.36.7.7,1.08,1.01.2.17.41.33.63.48.72.53,1.5.97,2.32,1.31.14.07.29.13.44.18.55.21,1.12.38,1.7.51.21.05.42.09.64.12.03.01.07.02.11.02.29.05.58.08.88.1.29.03.58.04.88.04h.05c.25,0,.49,0,.74-.03.2,0,.4-.02.6-.05.6-.07,1.21-.18,1.81-.35.11-.03.21-.05.31-.09.11-.02.21-.06.32-.1.03,0,.05-.01.08-.02l137.14-46.57v127.78Zm-134.62-107.42l-17.13-37.28,157.18-55.42,17.56,39.19-157.61,53.51Z"/>
    </g>
  </g>
</svg>
