<?xml version="1.0" encoding="UTF-8"?>
<svg id="Wrench" xmlns="http://www.w3.org/2000/svg" xmlns:xlink="http://www.w3.org/1999/xlink" viewBox="0 0 512.1 512.1">
  
  <g class="cls-2">
    <g class="cls-1">
      <path d="m129.98,405.82c-6.28,0-12.18-2.44-16.62-6.88-4.44-4.44-6.88-10.34-6.88-16.62s2.44-12.18,6.88-16.62l151.54-151.54-.16-.32c-5.13-10.33-7.73-21.45-7.73-33.06,0-41.08,33.42-74.5,74.5-74.5,13.84,0,27.31,3.81,39.02,11.04l-44.27,20.82c-3.44,1.62-5.93,4.67-6.83,8.36l-8.37,34.44c-1.39,5.67,1.42,11.64,6.68,14.2l31.88,15.5c1.69.82,3.57,1.26,5.45,1.26s3.67-.41,5.33-1.2l45.11-21.22c-4.36,37.58-36.01,65.8-73.99,65.8-11.61,0-22.73-2.6-33.06-7.73l-.32-.16-151.54,151.54c-4.44,4.44-10.34,6.88-16.62,6.88m.54-36.54c-6.89,0-12.5,5.61-12.5,12.5s5.61,12.5,12.5,12.5,12.5-5.61,12.5-12.5-5.61-12.5-12.5-12.5"/>
      <path d="m331.52,106.78c13.44,0,26.52,3.62,37.96,10.48l-43.43,20.42c-3.58,1.69-6.17,4.86-7.11,8.7l-8.37,34.44c-1.44,5.9,1.48,12.11,6.94,14.77l31.88,15.5c1.76.86,3.72,1.31,5.67,1.31s3.82-.43,5.54-1.24l44.29-20.83c-2.24,17.4-10.61,33.43-23.7,45.3-13.63,12.36-31.27,19.16-49.68,19.16-11.53,0-22.58-2.58-32.84-7.68l-.64-.32-.51.51-151.29,151.29c-4.34,4.34-10.12,6.74-16.26,6.74s-11.92-2.39-16.26-6.74c-4.34-4.34-6.73-10.12-6.73-16.26s2.39-11.92,6.73-16.26l151.29-151.29.51-.51-.32-.64c-5.09-10.26-7.68-21.31-7.68-32.84,0-40.8,33.2-74,74-74m-201,288c7.17,0,13-5.83,13-13s-5.83-13-13-13-13,5.83-13,13,5.83,13,13,13M331.52,105.78c-41.42,0-75,33.58-75,75,0,11.95,2.8,23.25,7.78,33.28l-151.29,151.29c-9.37,9.37-9.37,24.57,0,33.94,4.68,4.68,10.83,7.03,16.97,7.03s12.29-2.34,16.97-7.03l151.29-151.29c10.03,4.98,21.33,7.78,33.28,7.78,38.76,0,70.66-29.41,74.59-67.13l-45.92,21.6c-1.62.77-3.37,1.15-5.11,1.15s-3.58-.4-5.23-1.21l-31.88-15.5c-5.08-2.47-7.75-8.15-6.41-13.63l8.37-34.44c.86-3.53,3.27-6.48,6.56-8.03l45.1-21.21c-11.59-7.35-25.33-11.6-40.06-11.6m-201,288c-6.63,0-12-5.37-12-12s5.37-12,12-12,12,5.37,12,12-5.37,12-12,12"/>
    </g>
  </g>
</svg>
