<?xml version="1.0" encoding="UTF-8"?>
<svg id="Lock" xmlns="http://www.w3.org/2000/svg" xmlns:xlink="http://www.w3.org/1999/xlink" viewBox="0 0 512.1 512.1">
  
  <g class="cls-2">
    <g class="cls-1">
      <path d="m396.05,180.05h-12v-.08c-.24-69.99-57.21-127.37-127-127.92-34.03-.25-66.23,12.93-90.72,37.14-24.57,24.29-38.16,56.53-38.28,90.78v.08h-12c-22.64,0-41,18.36-41,41v174c0,22.64,18.36,41,41,41h280c22.64,0,41-18.36,41-41v-174c0-22.64-18.36-41-41-41m-195.97-56.73c15.19-15.02,35.05-23.27,55.97-23.27h.63c43.58.34,79.18,36.23,79.37,80h-160c.09-21.36,8.63-41.5,24.03-56.73m67.97,205.5v39.23c0,3.32-1.34,6.32-3.51,8.49-2.17,2.17-5.17,3.51-8.49,3.51-6.63,0-12-5.37-12-12v-39.23c-7.17-4.14-12-11.89-12-20.77,0-13.25,10.75-24,24-24s24,10.75,24,24c0,8.88-4.83,16.63-12,20.77"/>
    </g>
  </g>
</svg>
