<?xml version="1.0" encoding="UTF-8"?>
<svg id="Connector" xmlns="http://www.w3.org/2000/svg" xmlns:xlink="http://www.w3.org/1999/xlink" viewBox="0 0 512.1 512.1">
  
  <g class="cls-1">
    <g class="cls-3">
      <path d="m278.23,330.56c-1.47,1.47-3.55,2.17-5.98,2.17-1.56,0-3.27-.29-5.07-.84-2.55-.8-5.28-2.14-7.99-3.97l-30.14,30.14-.03-.03c-9.55,9.31-22.59,15.03-36.97,15.03-11.69,0-21.35-4.18-27.87-8.16l-27.35,27.35-16.97-16.97,27.39-27.39c-4.1-6.69-8.2-16.28-8.2-27.83,0-14.37,5.72-27.43,15.03-36.97l-.03-.03,30.27-30.27c-4.81-7.42-5.91-14.97-2.13-18.75,1.54-1.54,3.71-2.27,6.24-2.27,1.52,0,3.16.26,4.89.77,4.59,1.36,9.7,4.48,14.25,9.03l5.48,5.49,10.73-10.7c4.69-4.69,12.29-4.69,16.97,0,4.69,4.69,4.69,12.28,0,16.97l-11.71,11.72,18.35,18.35,11.48-11.49c4.68-4.69,12.28-4.69,16.97,0,4.69,4.68,4.69,12.28,0,16.97l-10.9,10.9,5.42,5.42c9.18,9.18,12.7,20.53,7.87,25.36"/>
      <path d="m372.28,193.12c0,14.38-5.72,27.42-15.03,36.97l.03.03-30.17,30.17c5.03,7.55,6.31,15.18,2.58,18.91-1.46,1.46-3.52,2.15-5.94,2.15-1.59,0-3.33-.3-5.16-.88-2.5-.78-5.16-2.09-7.81-3.85l-.02-.02c-2.24-1.49-4.49-3.33-6.61-5.45l-5.6-5.59,17.46-17.45.04-.05c1.43-2.05,2.16-4.46,2.16-6.87,0-3.07-1.18-6.15-3.52-8.49-4.68-4.68-12.28-4.68-16.97,0l-15.43,15.43-18.02-18.02,15.01-15.02c2.34-2.35,3.51-5.42,3.51-8.49s-1.17-6.14-3.51-8.48c-4.69-4.69-12.29-4.69-16.97,0l-11.37,11.38-4.22,4.23-3.54-3.54-2.17-2.17c-2.05-2.05-3.8-4.21-5.23-6.4-5-7.62-6.1-15.5-2.13-19.47,1.63-1.63,3.93-2.41,6.59-2.41,1.5,0,3.12.25,4.81.73,2.59.74,5.35,2.02,8.06,3.82l29.17-29.17.03.03c9.54-9.31,22.6-15.03,36.97-15.03,11.58,0,21.16,4.1,27.69,8.03l28.3-28.3,16.97,16.97-28.27,28.27c4.13,6.7,8.31,16.36,8.31,28.03"/>
    </g>
  </g>
</svg>
