<?xml version="1.0" encoding="UTF-8"?>
<svg id="Mobile_phone" xmlns="http://www.w3.org/2000/svg" xmlns:xlink="http://www.w3.org/1999/xlink" viewBox="0 0 512.1 512.1">
  
  <g class="cls-2">
    <g class="cls-1">
      <path d="m343.05,35.05h-174c-22.64,0-41,18.36-41,41v360c0,22.64,18.36,41,41,41h174c22.64,0,41-18.36,41-41V76.05c0-22.64-18.36-41-41-41m-139,13h104c6.63,0,12,5.37,12,12,0,3.32-1.34,6.32-3.51,8.49-2.17,2.17-5.17,3.51-8.49,3.51h-104c-6.63,0-12-5.37-12-12s5.37-12,12-12m52,414c-13.25,0-24-10.75-24-24s10.75-24,24-24,24,10.75,24,24-10.75,24-24,24m104-64h-208V85.05h208v313Z"/>
    </g>
  </g>
</svg>
