<?xml version="1.0" encoding="UTF-8"?>
<svg id="User" xmlns="http://www.w3.org/2000/svg" xmlns:xlink="http://www.w3.org/1999/xlink" viewBox="0 0 512.1 512.1">
  
  <g class="cls-4">
    <g class="cls-1">
      <path d="m256.05,213.53c-38.17,0-69.21-31.05-69.21-69.21s31.05-69.21,69.21-69.21,69.21,31.05,69.21,69.21-31.05,69.21-69.21,69.21"/>
      <path d="m256.05,75.15c18.47,0,35.84,7.19,48.91,20.26,13.06,13.06,20.26,30.43,20.26,48.91s-7.2,35.84-20.26,48.91c-13.06,13.06-30.43,20.26-48.91,20.26s-35.84-7.19-48.91-20.26c-13.06-13.06-20.26-30.43-20.26-48.91s7.19-35.84,20.26-48.91c13.06-13.06,30.43-20.26,48.91-20.26m0-.1c-38.25,0-69.26,31.01-69.26,69.26s31.01,69.26,69.26,69.26,69.26-31.01,69.26-69.26-31.01-69.26-69.26-69.26"/>
      <path d="m403.07,396.98c-42.02,25.31-92.59,40.07-147.02,40.07s-105.01-14.75-147.02-40.07c.1-93.38,65.89-169.03,147.02-169.03s146.92,75.65,147.02,169.03"/>
      <path class="cls-2" d="m403.07,396.98c-42.02,25.31-92.59,40.07-147.02,40.07s-105.01-14.75-147.02-40.07c.1-93.38,65.89-169.03,147.02-169.03s146.92,75.65,147.02,169.03Z"/>
    </g>
  </g>
</svg>
