<?xml version="1.0" encoding="UTF-8"?>
<svg id="File" xmlns="http://www.w3.org/2000/svg" xmlns:xlink="http://www.w3.org/1999/xlink" viewBox="0 0 512.1 512.1">
  
  <g class="cls-2">
    <g class="cls-1">
      <path d="m360.62,178.05c-28.75,0-52.07-23.32-52.07-52.07v-50.93h-166c-22.64,0-41,18.36-41,41v280c0,22.64,18.36,41,41,41h227c22.64,0,41-18.36,41-41v-218h-49.93Zm-231.48-35.49c2.17-2.17,5.17-3.51,8.48-3.51h135.93c6.63,0,12,5.37,12,12,0,3.32-1.34,6.32-3.51,8.49s-5.17,3.51-8.49,3.51h-135.93c-6.62,0-12-5.37-12-12,0-3.32,1.35-6.32,3.52-8.49m-.16,48c2.17-2.17,5.17-3.51,8.49-3.51h174.08c6.63,0,12,5.37,12,12,0,3.32-1.34,6.32-3.51,8.49s-5.17,3.51-8.49,3.51h-174.08c-6.63,0-12-5.37-12-12,0-3.32,1.34-6.32,3.51-8.49m254.06,208.98c-2.17,2.17-5.17,3.51-8.49,3.51h-237.08c-6.63,0-12-5.37-12-12,0-3.32,1.34-6.32,3.51-8.49,2.17-2.17,5.17-3.51,8.49-3.51h237.08c6.63,0,12,5.37,12,12,0,3.32-1.34,6.32-3.51,8.49m0-48c-2.17,2.17-5.17,3.51-8.49,3.51h-237.08c-6.63,0-12-5.37-12-12,0-3.32,1.34-6.32,3.51-8.49,2.17-2.17,5.17-3.51,8.49-3.51h237.08c6.63,0,12,5.37,12,12,0,3.32-1.34,6.32-3.51,8.49m0-48c-2.17,2.17-5.17,3.51-8.49,3.51h-237.08c-6.63,0-12-5.37-12-12,0-3.32,1.34-6.32,3.51-8.49,2.17-2.17,5.17-3.51,8.49-3.51h237.08c6.63,0,12,5.37,12,12,0,3.32-1.34,6.32-3.51,8.49m0-48c-2.17,2.17-5.17,3.51-8.49,3.51h-237.05c-6.62,0-12-5.37-12-12,0-3.32,1.35-6.32,3.52-8.49,2.17-2.17,5.17-3.51,8.48-3.51h237.05c6.63,0,12,5.37,12,12,0,3.32-1.34,6.32-3.51,8.49"/>
      <path d="m410.47,155.04c-.28,0-.55,0-.84,0h-41.81c-20.58,0-37.27-16.69-37.27-37.27v-41.82c0-.28,0-.55,0-.84l79.91,79.91Z"/>
    </g>
  </g>
</svg>
